<svg width="313" height="45" viewBox="0 0 313 45" fill="none" xmlns="http://www.w3.org/2000/svg">
<g clip-path="url(#clip0_63_16)">
<path d="M133.82 35.5406H130.645V34.252H138.461V35.5406H135.286V44.4999H133.824L133.82 35.5406Z" fill="#2257A7"/>
<path d="M139.89 34.252H142.388C144.408 34.252 146.355 34.5721 146.355 37.019C146.344 37.5977 146.124 38.153 145.737 38.5818C145.35 39.0106 144.821 39.2839 144.248 39.3512V39.3828C144.697 39.5568 144.918 39.7781 145.233 40.4086L147.164 44.492H145.498L143.936 40.9344C143.483 39.9343 142.997 39.9343 142.219 39.9343H141.345V44.49H139.885L139.89 34.252ZM141.351 38.6535H142.595C143.983 38.6535 144.8 38.0388 144.8 37.0506C144.8 36.1276 144.101 35.5386 142.754 35.5386H141.351V38.6535Z" fill="#2257A7"/>
<path d="M152.801 34.252H154.339L158.655 44.4999H157.059L156.018 41.9167H151.02L149.983 44.4999H148.445L152.801 34.252ZM153.516 35.6355L151.486 40.7169H155.551L153.516 35.6355Z" fill="#2257A7"/>
<path d="M160.116 34.2519H163.128C163.822 34.1896 164.521 34.2736 165.18 34.4985C165.84 34.7234 166.445 35.0842 166.958 35.5578C167.471 36.0314 167.879 36.6073 168.157 37.2486C168.435 37.8899 168.577 38.5825 168.572 39.2819C168.633 40.0041 168.531 40.7307 168.275 41.4083C168.019 42.0859 167.615 42.6973 167.093 43.1976C166.57 43.6979 165.943 44.0743 165.257 44.2993C164.571 44.5243 163.843 44.5922 163.128 44.4978H160.116V34.2519ZM161.577 43.2032H163.114C163.639 43.2811 164.175 43.2356 164.68 43.0703C165.185 42.9049 165.645 42.6243 166.023 42.2504C166.402 41.8765 166.689 41.4195 166.861 40.9154C167.034 40.4113 167.088 39.8738 167.019 39.3452C167.052 38.8412 166.978 38.336 166.802 37.8627C166.626 37.3895 166.353 36.959 166 36.5994C165.647 36.2399 165.221 35.9595 164.753 35.7767C164.284 35.5938 163.782 35.5126 163.279 35.5385H161.569L161.577 43.2032Z" fill="#2257A7"/>
<path d="M170.633 34.252H176.352V35.5406H172.094V38.5389H175.968V39.8275H172.094V43.2053H176.352V44.4999H170.633V34.252Z" fill="#2257A7"/>
<path d="M182.186 34.252H183.794L186.239 43.0314H186.265L188.448 34.252H190.522L192.731 43.0314H192.756L195.201 34.252H196.752L193.603 44.4999H191.719L189.499 35.5406H189.467L187.233 44.4999H185.265L182.186 34.252Z" fill="#2257A7"/>
<path d="M199.918 34.252H198.449V44.4999H199.918V34.252Z" fill="#2257A7"/>
<path d="M204.902 35.5406H201.731V34.252H209.535V35.5406H206.364V44.4999H204.902V35.5406Z" fill="#2257A7"/>
<path d="M211.437 34.252H212.899V38.5389H217.787V34.252H219.25V44.4999H217.787V39.8275H212.903V44.4999H211.441L211.437 34.252Z" fill="#2257A7"/>
<path d="M233.757 35.9379C233.118 35.5615 232.391 35.3643 231.651 35.3667C230.612 35.3878 229.623 35.8143 228.893 36.5556C228.162 37.2969 227.748 38.2948 227.738 39.3375C227.728 40.3803 228.123 41.386 228.839 42.1413C229.555 42.8966 230.536 43.342 231.574 43.3832C232.345 43.3897 233.107 43.2186 233.802 42.8832L233.893 44.3062C233.147 44.57 232.36 44.6939 231.57 44.6719C230.855 44.7244 230.138 44.6229 229.465 44.3744C228.793 44.1258 228.181 43.7358 227.671 43.2305C227.161 42.7252 226.764 42.1163 226.507 41.4445C226.251 40.7727 226.14 40.0536 226.182 39.3354C226.161 38.6258 226.287 37.9195 226.553 37.2615C226.819 36.6036 227.218 36.0084 227.725 35.514C228.233 35.0196 228.837 34.6367 229.5 34.3898C230.163 34.1429 230.87 34.0374 231.576 34.08C232.367 34.0622 233.152 34.2131 233.881 34.5227L233.757 35.9379Z" fill="#2257A7"/>
<path d="M239.826 34.0721C240.885 33.9975 241.943 34.2449 242.86 34.782C243.778 35.3191 244.514 36.1211 244.971 37.0837C245.428 38.0463 245.587 39.1248 245.425 40.179C245.264 41.2331 244.79 42.2141 244.066 42.9943C243.342 43.7745 242.401 44.3177 241.365 44.5533C240.329 44.7889 239.246 44.7059 238.258 44.3153C237.269 43.9246 236.421 43.2442 235.823 42.3628C235.225 41.4813 234.905 40.4395 234.905 39.373C234.838 38.6909 234.918 38.0026 235.137 37.3536C235.356 36.7045 235.709 36.1097 236.175 35.6084C236.64 35.1072 237.206 34.711 237.836 34.4461C238.465 34.1812 239.143 34.0537 239.826 34.0721ZM239.826 43.3832C242.188 43.3832 243.19 41.4067 243.19 39.371C243.19 37.2878 242.079 35.3469 239.826 35.3647C237.58 35.3449 236.467 37.2878 236.467 39.371C236.467 41.4087 237.475 43.3832 239.826 43.3832Z" fill="#2257A7"/>
<path d="M246.878 34.252H248.871L253.37 42.4997H253.402V34.252H254.864V44.4999H252.988L248.369 36.0723H248.343V44.4999H246.88L246.878 34.252Z" fill="#2257A7"/>
<path d="M257.435 34.252H262.86V35.5406H258.904V38.5389H262.689V39.8275H258.904V44.4999H257.435V34.252Z" fill="#2257A7"/>
<path d="M266.368 34.252H264.907V44.4999H266.368V34.252Z" fill="#2257A7"/>
<path d="M268.949 34.2518H271.96C272.654 34.1904 273.352 34.2751 274.011 34.5004C274.669 34.7257 275.274 35.0867 275.786 35.5602C276.298 36.0337 276.705 36.6094 276.983 37.2503C277.26 37.8911 277.401 38.5831 277.397 39.2819C277.458 40.0036 277.357 40.7299 277.102 41.4074C276.847 42.0848 276.444 42.6962 275.922 43.1966C275.401 43.697 274.774 44.0736 274.088 44.2988C273.403 44.524 272.676 44.592 271.96 44.4978H268.949V34.2518ZM270.409 43.2032H271.946C272.472 43.2813 273.007 43.2359 273.512 43.0706C274.017 42.9052 274.476 42.6245 274.854 42.2504C275.232 41.8763 275.519 41.4192 275.691 40.915C275.863 40.4109 275.916 39.8734 275.846 39.3451C275.879 38.8422 275.806 38.338 275.631 37.8655C275.456 37.393 275.184 36.9629 274.832 36.6034C274.48 36.244 274.057 35.9633 273.589 35.7797C273.122 35.5962 272.621 35.514 272.12 35.5385H270.409V43.2032Z" fill="#2257A7"/>
<path d="M279.46 34.252H285.178V35.5406H280.928V38.5389H284.802V39.8275H280.928V43.2053H285.178V44.4999H279.46V34.252Z" fill="#2257A7"/>
<path d="M287.566 34.252H289.55L294.056 42.4997H294.087V34.252H295.548V44.4999H293.678L289.058 36.0723H289.027V44.4999H287.566V34.252Z" fill="#2257A7"/>
<path d="M305.256 35.9377C304.62 35.5614 303.894 35.3641 303.156 35.3665C302.117 35.3876 301.128 35.814 300.398 36.5554C299.667 37.2967 299.253 38.2945 299.243 39.3373C299.233 40.3801 299.628 41.3858 300.344 42.141C301.06 42.8963 302.041 43.3418 303.079 43.383C303.848 43.3891 304.607 43.218 305.3 42.8829L305.396 44.306C304.649 44.5702 303.859 44.6942 303.067 44.6716C302.353 44.7233 301.636 44.6212 300.965 44.3722C300.293 44.1232 299.682 43.733 299.173 43.2278C298.663 42.7226 298.267 42.1139 298.011 41.4426C297.755 40.7713 297.645 40.0528 297.688 39.3352C297.666 38.6254 297.792 37.9188 298.057 37.2606C298.323 36.6024 298.722 36.007 299.229 35.5124C299.737 35.0179 300.342 34.635 301.005 34.3883C301.668 34.1417 302.375 34.0366 303.081 34.0798C303.869 34.0621 304.652 34.213 305.378 34.5225L305.256 35.9377Z" fill="#2257A7"/>
<path d="M307.28 34.252H312.998V35.5406H308.74V38.5389H312.614V39.8275H308.74V43.2053H312.998V44.4999H307.28V34.252Z" fill="#2257A7"/>
<path d="M25.566 0.140137L0 44.5986H12.8932L25.7923 22.1618L38.6915 44.5986H51.5847L26.0226 0.140137H25.566Z" fill="#2882C0"/>
<path d="M90.8096 0.140137L65.2456 44.5986H78.1388L91.032 22.1618L103.931 44.5986H116.824L91.2702 0.140137H90.8096Z" fill="#2882C0"/>
<path d="M71.3162 0.140137L58.421 22.5729L45.518 0.140137H32.6248L58.4112 45.0057L84.1976 0.140137H71.3162Z" fill="#2882C0"/>
<path d="M237.233 7.15471C237.271 6.02155 236.997 4.89987 236.441 3.91281C235.886 2.92575 235.07 2.11146 234.084 1.55936C231.925 0.492161 229.517 0.0357258 227.119 0.239084H218.921V26.8976H223.381V14.5882H225.761L233.97 26.8976H238.83L230.05 14.1C230.163 14.0822 230.088 14.0822 230.088 14.0822C234.861 13.4893 237.227 10.908 237.227 7.16459M232.531 7.32073C232.624 8.11485 232.537 8.91993 232.276 9.67545C232.015 10.431 231.587 11.1173 231.024 11.6828C230.461 12.2484 229.778 12.6784 229.025 12.9406C228.273 13.2028 227.471 13.2904 226.68 13.1967H223.379V1.59889H226.444C227.735 1.52622 229.023 1.78754 230.184 2.35784C230.984 2.89464 231.624 3.63866 232.036 4.51102C232.448 5.38337 232.618 6.35154 232.527 7.31283" fill="#2882C0"/>
<path d="M194.008 0.239302V1.71374H203.441V26.8938H207.902V1.71374H217.297V0.235352L194.008 0.239302Z" fill="#2882C0"/>
<path d="M255.573 0H253.424L241.798 26.8976H244.751L248.014 18.2229H258.447L261.911 26.8976H266.846L255.573 0ZM248.571 16.7465L253.063 4.75733L257.843 16.7465H248.571Z" fill="#2882C0"/>
<path d="M286.542 2.10907C283.95 0.630684 281.72 0.231445 276.387 0.231445H269.067V26.8978H275.553C281.44 26.8978 283.714 26.4907 286.456 24.8976C290.196 22.7769 292.194 18.7429 292.194 13.3097C292.348 11.1041 291.904 8.89779 290.909 6.92547C289.914 4.95315 288.405 3.28864 286.542 2.10907ZM284.948 22.3678C283.117 24.6071 280.724 25.4451 276.108 25.4451H273.523V1.67822H276.631C279.253 1.41402 281.878 2.14056 283.995 3.71594C286.219 5.59358 287.379 8.99111 287.379 13.6239C287.582 16.7337 286.724 19.8202 284.948 22.3757V22.3678Z" fill="#2882C0"/>
<path d="M312.37 0.239258H295.812V26.8977H313V25.4174H300.272V13.9065H311.049V12.4301H300.272V1.7137H312.37V0.239258Z" fill="#2882C0"/>
<path d="M145.091 0H142.945L131.332 26.8976H134.265L137.528 18.2229H147.961L151.421 26.8976H156.362L145.091 0ZM138.089 16.7465L142.587 4.75733L147.363 16.7465H138.089ZM162.695 27.1723H165.006L176.029 0.239148H173.045L165.319 22.0593L156.902 0.239148H152.006L162.695 27.1723ZM184.46 0H182.294L170.681 26.8976H173.633L176.897 18.2229H187.33L190.788 26.8976H195.729L184.46 0ZM177.458 16.7465L181.95 4.75733L186.727 16.7465H177.458Z" fill="#2257A7"/>
</g>
<defs>
<clipPath id="clip0_63_16">
<rect width="313" height="45" fill="white"/>
</clipPath>
</defs>
</svg>
