<svg width="310" height="48" viewBox="0 0 310 48" fill="none" xmlns="http://www.w3.org/2000/svg">
<path d="M5.5625 1.5H14.5L24.6562 33.1562L34.8125 1.5H43.75L28.2812 47H21.0312L5.5625 1.5ZM0.125 1.5H9.375L11.0938 36.375V47H0.125V1.5ZM39.9375 1.5H49.2188V47H38.2188V36.375L39.9375 1.5ZM67.9062 1.5V47H56.9688V1.5H67.9062ZM93.7188 32.7188V1.5H104.656V32.7188C104.656 35.7604 103.958 38.3958 102.562 40.625C101.188 42.8542 99.3125 44.5833 96.9375 45.8125C94.5833 47.0208 91.9375 47.625 89 47.625C85.9583 47.625 83.25 47.1146 80.875 46.0938C78.5208 45.0729 76.6667 43.5 75.3125 41.375C73.9792 39.25 73.3125 36.5417 73.3125 33.25H84.3125C84.3125 34.7917 84.4896 36 84.8438 36.875C85.1979 37.7292 85.7188 38.3333 86.4062 38.6875C87.1146 39.0208 87.9792 39.1875 89 39.1875C90 39.1875 90.8438 38.9375 91.5312 38.4375C92.2396 37.9167 92.7812 37.1771 93.1562 36.2188C93.5312 35.2396 93.7188 34.0729 93.7188 32.7188ZM150.125 23.3438V25.1875C150.125 28.6667 149.635 31.7917 148.656 34.5625C147.698 37.3125 146.333 39.6667 144.562 41.625C142.792 43.5625 140.698 45.0521 138.281 46.0938C135.865 47.1146 133.198 47.625 130.281 47.625C127.344 47.625 124.656 47.1146 122.219 46.0938C119.802 45.0521 117.698 43.5625 115.906 41.625C114.135 39.6667 112.76 37.3125 111.781 34.5625C110.823 31.7917 110.344 28.6667 110.344 25.1875V23.3438C110.344 19.8646 110.823 16.7396 111.781 13.9688C112.76 11.1979 114.125 8.84375 115.875 6.90625C117.646 4.94792 119.74 3.45833 122.156 2.4375C124.594 1.39583 127.281 0.875 130.219 0.875C133.135 0.875 135.802 1.39583 138.219 2.4375C140.656 3.45833 142.76 4.94792 144.531 6.90625C146.302 8.84375 147.677 11.1979 148.656 13.9688C149.635 16.7396 150.125 19.8646 150.125 23.3438ZM139 25.1875V23.2812C139 21.0312 138.802 19.0521 138.406 17.3438C138.031 15.6146 137.469 14.1667 136.719 13C135.969 11.8333 135.042 10.9583 133.938 10.375C132.854 9.77083 131.615 9.46875 130.219 9.46875C128.76 9.46875 127.49 9.77083 126.406 10.375C125.323 10.9583 124.417 11.8333 123.688 13C122.958 14.1667 122.406 15.6146 122.031 17.3438C121.677 19.0521 121.5 21.0312 121.5 23.2812V25.1875C121.5 27.4167 121.677 29.3958 122.031 31.125C122.406 32.8333 122.958 34.2812 123.688 35.4688C124.438 36.6562 125.354 37.5521 126.438 38.1562C127.542 38.7604 128.823 39.0625 130.281 39.0625C131.677 39.0625 132.917 38.7604 134 38.1562C135.083 37.5521 135.99 36.6562 136.719 35.4688C137.469 34.2812 138.031 32.8333 138.406 31.125C138.802 29.3958 139 27.4167 139 25.1875ZM189.125 38.5625V47H156.188V38.5625H189.125ZM188.906 7.125L161.625 47H153.688V41.2188L181.281 1.5H188.906V7.125ZM185.375 1.5V9.96875H153.531V1.5H185.375ZM224.188 38.5625V47H201.188V38.5625H224.188ZM205.094 1.5V47H194.125V1.5H205.094ZM248.719 11.0625L237.625 47H225.844L242.562 1.5H250.031L248.719 11.0625ZM257.906 47L246.781 11.0625L245.344 1.5H252.906L269.719 47H257.906ZM257.469 30.0312V38.5H234.125V30.0312H257.469ZM273.062 1.5H290.969C294.469 1.5 297.51 2.02083 300.094 3.0625C302.677 4.10417 304.667 5.64583 306.062 7.6875C307.479 9.72917 308.188 12.25 308.188 15.25C308.188 17.8542 307.781 20.0312 306.969 21.7812C306.156 23.5312 305.021 24.9792 303.562 26.125C302.125 27.25 300.448 28.1771 298.531 28.9062L294.938 30.9375H279.906L279.844 22.4688H290.969C292.365 22.4688 293.521 22.2188 294.438 21.7188C295.354 21.2188 296.042 20.5104 296.5 19.5938C296.979 18.6562 297.219 17.5417 297.219 16.25C297.219 14.9375 296.979 13.8125 296.5 12.875C296.021 11.9375 295.312 11.2188 294.375 10.7188C293.458 10.2188 292.323 9.96875 290.969 9.96875H284.031V47H273.062V1.5ZM297.969 47L287.906 26.875L299.531 26.8125L309.719 46.5312V47H297.969Z" fill="black"/>
</svg>
