<svg width="829" height="124" viewBox="0 0 829 124" fill="none" xmlns="http://www.w3.org/2000/svg">
<path d="M38.4688 2.5V48H27.5312L11.4375 19.6875V48H0.46875V2.5H11.4375L27.5312 30.8125V2.5H38.4688ZM65.25 12.0625L54.1562 48H42.375L59.0938 2.5H66.5625L65.25 12.0625ZM74.4375 48L63.3125 12.0625L61.875 2.5H69.4375L86.25 48H74.4375ZM74 31.0312V39.5H50.6562V31.0312H74ZM107.875 2.5V48H96.9062V2.5H107.875ZM121.562 2.5V10.9688H83.5312V2.5H121.562ZM137.875 2.5V48H126.938V2.5H137.875ZM163.688 33.7188V2.5H174.625V33.7188C174.625 36.7604 173.927 39.3958 172.531 41.625C171.156 43.8542 169.281 45.5833 166.906 46.8125C164.552 48.0208 161.906 48.625 158.969 48.625C155.927 48.625 153.219 48.1146 150.844 47.0938C148.49 46.0729 146.635 44.5 145.281 42.375C143.948 40.25 143.281 37.5417 143.281 34.25H154.281C154.281 35.7917 154.458 37 154.812 37.875C155.167 38.7292 155.688 39.3333 156.375 39.6875C157.083 40.0208 157.948 40.1875 158.969 40.1875C159.969 40.1875 160.812 39.9375 161.5 39.4375C162.208 38.9167 162.75 38.1771 163.125 37.2188C163.5 36.2396 163.688 35.0729 163.688 33.7188ZM200.188 12.0625L189.094 48H177.312L194.031 2.5H201.5L200.188 12.0625ZM209.375 48L198.25 12.0625L196.812 2.5H204.375L221.188 48H209.375ZM208.938 31.0312V39.5H185.594V31.0312H208.938ZM261.062 23.6875V42.375C260.292 43.2292 259.104 44.1458 257.5 45.125C255.917 46.0833 253.917 46.9062 251.5 47.5938C249.083 48.2812 246.24 48.625 242.969 48.625C239.948 48.625 237.208 48.1458 234.75 47.1875C232.292 46.2083 230.177 44.7812 228.406 42.9062C226.656 41.0104 225.302 38.6979 224.344 35.9688C223.406 33.2188 222.938 30.0729 222.938 26.5312V24C222.938 20.4583 223.417 17.3125 224.375 14.5625C225.333 11.8125 226.677 9.5 228.406 7.625C230.156 5.72917 232.208 4.29167 234.562 3.3125C236.938 2.33333 239.542 1.84375 242.375 1.84375C246.562 1.84375 249.969 2.51042 252.594 3.84375C255.219 5.15625 257.208 6.97917 258.562 9.3125C259.917 11.625 260.74 14.3021 261.031 17.3438H250.5C250.292 15.8438 249.896 14.5729 249.312 13.5312C248.75 12.4688 247.938 11.6667 246.875 11.125C245.812 10.5625 244.438 10.2812 242.75 10.2812C241.438 10.2812 240.24 10.5625 239.156 11.125C238.094 11.6875 237.188 12.5417 236.438 13.6875C235.688 14.8125 235.104 16.2292 234.688 17.9375C234.292 19.6458 234.094 21.6458 234.094 23.9375V26.5312C234.094 28.8021 234.281 30.7917 234.656 32.5C235.052 34.2083 235.635 35.6354 236.406 36.7812C237.198 37.9062 238.198 38.7604 239.406 39.3438C240.635 39.9062 242.083 40.1875 243.75 40.1875C244.917 40.1875 245.917 40.0938 246.75 39.9062C247.583 39.6979 248.271 39.4479 248.812 39.1562C249.375 38.8438 249.802 38.5521 250.094 38.2812V31.2188H242.469V23.6875H261.062ZM286.75 12.0625L275.656 48H263.875L280.594 2.5H288.062L286.75 12.0625ZM295.938 48L284.812 12.0625L283.375 2.5H290.938L307.75 48H295.938ZM295.5 31.0312V39.5H272.156V31.0312H295.5ZM335.281 2.5L343.656 22.25L352.062 2.5H363.875L349.25 31.6562V48H338.094V31.6562L323.438 2.5H335.281ZM404.781 24.3438V26.1875C404.781 29.6667 404.292 32.7917 403.312 35.5625C402.354 38.3125 400.99 40.6667 399.219 42.625C397.448 44.5625 395.354 46.0521 392.938 47.0938C390.521 48.1146 387.854 48.625 384.938 48.625C382 48.625 379.312 48.1146 376.875 47.0938C374.458 46.0521 372.354 44.5625 370.562 42.625C368.792 40.6667 367.417 38.3125 366.438 35.5625C365.479 32.7917 365 29.6667 365 26.1875V24.3438C365 20.8646 365.479 17.7396 366.438 14.9688C367.417 12.1979 368.781 9.84375 370.531 7.90625C372.302 5.94792 374.396 4.45833 376.812 3.4375C379.25 2.39583 381.938 1.875 384.875 1.875C387.792 1.875 390.458 2.39583 392.875 3.4375C395.312 4.45833 397.417 5.94792 399.188 7.90625C400.958 9.84375 402.333 12.1979 403.312 14.9688C404.292 17.7396 404.781 20.8646 404.781 24.3438ZM393.656 26.1875V24.2812C393.656 22.0312 393.458 20.0521 393.062 18.3438C392.688 16.6146 392.125 15.1667 391.375 14C390.625 12.8333 389.698 11.9583 388.594 11.375C387.51 10.7708 386.271 10.4688 384.875 10.4688C383.417 10.4688 382.146 10.7708 381.062 11.375C379.979 11.9583 379.073 12.8333 378.344 14C377.615 15.1667 377.062 16.6146 376.688 18.3438C376.333 20.0521 376.156 22.0312 376.156 24.2812V26.1875C376.156 28.4167 376.333 30.3958 376.688 32.125C377.062 33.8333 377.615 35.2812 378.344 36.4688C379.094 37.6562 380.01 38.5521 381.094 39.1562C382.198 39.7604 383.479 40.0625 384.938 40.0625C386.333 40.0625 387.573 39.7604 388.656 39.1562C389.74 38.5521 390.646 37.6562 391.375 36.4688C392.125 35.2812 392.688 33.8333 393.062 32.125C393.458 30.3958 393.656 28.4167 393.656 26.1875ZM419.844 0L426.062 9.8125H417.531L408.719 0H419.844ZM470.219 2.5V48H459.281L443.188 19.6875V48H432.219V2.5H443.188L459.281 30.8125V2.5H470.219ZM497 12.0625L485.906 48H474.125L490.844 2.5H498.312L497 12.0625ZM506.188 48L495.062 12.0625L493.625 2.5H501.188L518 48H506.188ZM505.75 31.0312V39.5H482.406V31.0312H505.75ZM551.406 39.5625V48H528.406V39.5625H551.406ZM532.312 2.5V48H521.344V2.5H532.312ZM571.625 2.5V48H560.656V2.5H571.625ZM585.312 2.5V10.9688H547.281V2.5H585.312ZM601.625 2.5V48H590.688V2.5H601.625ZM609.344 2.5H627.25C630.75 2.5 633.792 3.02083 636.375 4.0625C638.958 5.10417 640.948 6.64583 642.344 8.6875C643.76 10.7292 644.469 13.25 644.469 16.25C644.469 18.8542 644.062 21.0312 643.25 22.7812C642.438 24.5312 641.302 25.9792 639.844 27.125C638.406 28.25 636.729 29.1771 634.812 29.9062L631.219 31.9375H616.188L616.125 23.4688H627.25C628.646 23.4688 629.802 23.2188 630.719 22.7188C631.635 22.2188 632.323 21.5104 632.781 20.5938C633.26 19.6562 633.5 18.5417 633.5 17.25C633.5 15.9375 633.26 14.8125 632.781 13.875C632.302 12.9375 631.594 12.2188 630.656 11.7188C629.74 11.2188 628.604 10.9688 627.25 10.9688H620.312V48H609.344V2.5ZM634.25 48L624.188 27.875L635.812 27.8125L646 47.5312V48H634.25ZM662.75 2.5V48H651.812V2.5H662.75ZM700.531 39.5625V48H677.531V39.5625H700.531ZM681.438 2.5V48H670.469V2.5H681.438ZM740.375 23.6875V42.375C739.604 43.2292 738.417 44.1458 736.812 45.125C735.229 46.0833 733.229 46.9062 730.812 47.5938C728.396 48.2812 725.552 48.625 722.281 48.625C719.26 48.625 716.521 48.1458 714.062 47.1875C711.604 46.2083 709.49 44.7812 707.719 42.9062C705.969 41.0104 704.615 38.6979 703.656 35.9688C702.719 33.2188 702.25 30.0729 702.25 26.5312V24C702.25 20.4583 702.729 17.3125 703.688 14.5625C704.646 11.8125 705.99 9.5 707.719 7.625C709.469 5.72917 711.521 4.29167 713.875 3.3125C716.25 2.33333 718.854 1.84375 721.688 1.84375C725.875 1.84375 729.281 2.51042 731.906 3.84375C734.531 5.15625 736.521 6.97917 737.875 9.3125C739.229 11.625 740.052 14.3021 740.344 17.3438H729.812C729.604 15.8438 729.208 14.5729 728.625 13.5312C728.062 12.4688 727.25 11.6667 726.188 11.125C725.125 10.5625 723.75 10.2812 722.062 10.2812C720.75 10.2812 719.552 10.5625 718.469 11.125C717.406 11.6875 716.5 12.5417 715.75 13.6875C715 14.8125 714.417 16.2292 714 17.9375C713.604 19.6458 713.406 21.6458 713.406 23.9375V26.5312C713.406 28.8021 713.594 30.7917 713.969 32.5C714.365 34.2083 714.948 35.6354 715.719 36.7812C716.51 37.9062 717.51 38.7604 718.719 39.3438C719.948 39.9062 721.396 40.1875 723.062 40.1875C724.229 40.1875 725.229 40.0938 726.062 39.9062C726.896 39.6979 727.583 39.4479 728.125 39.1562C728.688 38.8438 729.115 38.5521 729.406 38.2812V31.2188H721.781V23.6875H740.375ZM766.062 12.0625L754.969 48H743.188L759.906 2.5H767.375L766.062 12.0625ZM775.25 48L764.125 12.0625L762.688 2.5H770.25L787.062 48H775.25ZM774.812 31.0312V39.5H751.469V31.0312H774.812ZM828.406 2.5V48H817.469L801.375 19.6875V48H790.406V2.5H801.375L817.469 30.8125V2.5H828.406ZM23.125 77.5V123H12.5938V89.375L2.21875 92.4062V84.4062L22.1562 77.5H23.125ZM68.5625 77.5V83.125L51.5625 123H40.4375L57.4688 85.625H35.75V77.5H68.5625ZM98.9062 77.5L107.281 97.25L115.688 77.5H127.5L112.875 106.656V123H101.719V106.656L87.0625 77.5H98.9062ZM142.5 77.5V123H131.562V77.5H142.5ZM180.281 114.562V123H157.281V114.562H180.281ZM161.188 77.5V123H150.219V77.5H161.188ZM214.969 114.562V123H191.969V114.562H214.969ZM195.875 77.5V123H184.906V77.5H195.875ZM231.25 77.5V123H220.312V77.5H231.25ZM249.938 77.5V123H238.969V77.5H249.938ZM277.094 77.5L259.469 100.562L249.156 111.844L247.156 101.781L253.75 91.7812L263.562 77.5H277.094ZM264.125 123L252.375 102.5L260.906 96.2188L277.094 123H264.125ZM316 77.5V123H305.031V77.5H316ZM329.688 77.5V85.9688H291.656V77.5H329.688ZM349.812 87.0625L338.719 123H326.938L343.656 77.5H351.125L349.812 87.0625ZM359 123L347.875 87.0625L346.438 77.5H354L370.812 123H359ZM358.562 106.031V114.5H335.219V106.031H358.562ZM392.25 108.719V77.5H403.188V108.719C403.188 111.76 402.49 114.396 401.094 116.625C399.719 118.854 397.844 120.583 395.469 121.812C393.115 123.021 390.469 123.625 387.531 123.625C384.49 123.625 381.781 123.115 379.406 122.094C377.052 121.073 375.198 119.5 373.844 117.375C372.51 115.25 371.844 112.542 371.844 109.25H382.844C382.844 110.792 383.021 112 383.375 112.875C383.729 113.729 384.25 114.333 384.938 114.688C385.646 115.021 386.51 115.188 387.531 115.188C388.531 115.188 389.375 114.938 390.062 114.438C390.771 113.917 391.312 113.177 391.688 112.219C392.062 111.24 392.25 110.073 392.25 108.719ZM410.156 77.5H428.062C431.562 77.5 434.604 78.0208 437.188 79.0625C439.771 80.1042 441.76 81.6458 443.156 83.6875C444.573 85.7292 445.281 88.25 445.281 91.25C445.281 93.8542 444.875 96.0312 444.062 97.7812C443.25 99.5312 442.115 100.979 440.656 102.125C439.219 103.25 437.542 104.177 435.625 104.906L432.031 106.938H417L416.938 98.4688H428.062C429.458 98.4688 430.615 98.2188 431.531 97.7188C432.448 97.2188 433.135 96.5104 433.594 95.5938C434.073 94.6562 434.312 93.5417 434.312 92.25C434.312 90.9375 434.073 89.8125 433.594 88.875C433.115 87.9375 432.406 87.2188 431.469 86.7188C430.552 86.2188 429.417 85.9688 428.062 85.9688H421.125V123H410.156V77.5ZM435.062 123L425 102.875L436.625 102.812L446.812 122.531V123H435.062ZM463.562 77.5V123H452.625V77.5H463.562ZM489.844 103.656H478.125L478.062 96.4688H487.562C489.271 96.4688 490.635 96.2812 491.656 95.9062C492.677 95.5104 493.417 94.9375 493.875 94.1875C494.354 93.4375 494.594 92.5 494.594 91.375C494.594 90.0833 494.354 89.0417 493.875 88.25C493.396 87.4583 492.635 86.8854 491.594 86.5312C490.573 86.1562 489.25 85.9688 487.625 85.9688H482.25V123H471.281V77.5H487.625C490.438 77.5 492.948 77.7604 495.156 78.2812C497.365 78.7812 499.24 79.5521 500.781 80.5938C502.344 81.6354 503.531 82.9479 504.344 84.5312C505.156 86.0938 505.562 87.9375 505.562 90.0625C505.562 91.9167 505.167 93.6562 504.375 95.2812C503.583 96.9062 502.26 98.2292 500.406 99.25C498.573 100.25 496.062 100.771 492.875 100.812L489.844 103.656ZM489.406 123H475.469L479.219 114.562H489.406C490.906 114.562 492.104 114.333 493 113.875C493.917 113.396 494.573 112.771 494.969 112C495.385 111.208 495.594 110.333 495.594 109.375C495.594 108.208 495.396 107.198 495 106.344C494.625 105.49 494.021 104.833 493.188 104.375C492.354 103.896 491.24 103.656 489.844 103.656H480.625L480.688 96.4688H491.719L494.281 99.3438C497.323 99.2188 499.729 99.6458 501.5 100.625C503.292 101.604 504.573 102.896 505.344 104.5C506.115 106.104 506.5 107.781 506.5 109.531C506.5 112.51 505.854 115 504.562 117C503.292 119 501.385 120.5 498.844 121.5C496.302 122.5 493.156 123 489.406 123ZM531.875 87.0625L520.781 123H509L525.719 77.5H533.188L531.875 87.0625ZM541.062 123L529.938 87.0625L528.5 77.5H536.062L552.875 123H541.062ZM540.625 106.031V114.5H517.281V106.031H540.625Z" fill="#1A2032"/>
</svg>
