<svg width="33" height="33" viewBox="0 0 33 33" fill="none" xmlns="http://www.w3.org/2000/svg">
<path d="M12.15 31H20.85C28.1 31 31 28.1 31 20.85V12.15C31 4.9 28.1 2 20.85 2H12.15C4.9 2 2 4.9 2 12.15V20.85C2 28.1 4.9 31 12.15 31Z" stroke="#292D32" stroke-width="3" stroke-linecap="round" stroke-linejoin="round"/>
<path d="M16.5 21.5753C19.3028 21.5753 21.575 19.3031 21.575 16.5003C21.575 13.6974 19.3028 11.4253 16.5 11.4253C13.6971 11.4253 11.425 13.6974 11.425 16.5003C11.425 19.3031 13.6971 21.5753 16.5 21.5753Z" stroke="#292D32" stroke-width="3" stroke-linecap="round" stroke-linejoin="round"/>
<path d="M24.6724 9.25H24.6899" stroke="#292D32" stroke-width="3" stroke-linecap="round" stroke-linejoin="round"/>
</svg>
