<svg width="31" height="31" viewBox="0 0 31 31" fill="none" xmlns="http://www.w3.org/2000/svg">
<path d="M2 2H4.38738C5.86919 2 7.03542 3.27601 6.91193 4.7441L5.77313 18.4097C5.58105 20.6461 7.35098 22.567 9.60113 22.567H24.2135C26.1892 22.567 27.918 20.948 28.0689 18.986L28.8098 8.6956C28.9745 6.418 27.2457 4.56573 24.9544 4.56573H7.24124" stroke="#292D32" stroke-width="3" stroke-miterlimit="10" stroke-linecap="round" stroke-linejoin="round"/>
<path d="M21.5517 29.4409C22.4989 29.4409 23.2667 28.6731 23.2667 27.7258C23.2667 26.7785 22.4989 26.0107 21.5517 26.0107C20.6044 26.0107 19.8366 26.7785 19.8366 27.7258C19.8366 28.6731 20.6044 29.4409 21.5517 29.4409Z" stroke="#292D32" stroke-width="3" stroke-miterlimit="10" stroke-linecap="round" stroke-linejoin="round"/>
<path d="M10.5753 29.4409C11.5225 29.4409 12.2904 28.6731 12.2904 27.7258C12.2904 26.7785 11.5225 26.0107 10.5753 26.0107C9.62808 26.0107 8.86023 26.7785 8.86023 27.7258C8.86023 28.6731 9.62808 29.4409 10.5753 29.4409Z" stroke="#292D32" stroke-width="3" stroke-miterlimit="10" stroke-linecap="round" stroke-linejoin="round"/>
<path d="M11.6044 10.2324H28.069" stroke="#292D32" stroke-width="3" stroke-miterlimit="10" stroke-linecap="round" stroke-linejoin="round"/>
</svg>
