<svg width="30" height="30" viewBox="0 0 30 30" fill="none" xmlns="http://www.w3.org/2000/svg">
<path d="M13.301 19.4188C13.022 19.4188 12.7569 19.3072 12.5616 19.1119L9.18574 15.7359C8.78119 15.3313 8.78119 14.6617 9.18574 14.2572C9.5903 13.8526 10.2599 13.8526 10.6645 14.2572L13.301 16.8938L19.2996 10.8952C19.7041 10.4907 20.3737 10.4907 20.7783 10.8952C21.1829 11.2998 21.1829 11.9694 20.7783 12.3739L14.0403 19.1119C13.845 19.3072 13.58 19.4188 13.301 19.4188Z" fill="#292D32"/>
<path d="M14.9896 29.993C14.1107 29.993 13.2318 29.7 12.5483 29.1141L10.3441 27.2169C10.1209 27.0216 9.56287 26.8263 9.26992 26.8263H6.87048C4.80585 26.8263 3.13182 25.1522 3.13182 23.0876V20.7021C3.13182 20.4092 2.93652 19.8651 2.74122 19.6419L0.857938 17.4238C-0.285979 16.0707 -0.285979 13.9363 0.857938 12.5831L2.74122 10.365C2.93652 10.1418 3.13182 9.59775 3.13182 9.3048V6.90536C3.13182 4.84073 4.80585 3.1667 6.87048 3.1667H9.28387C9.57683 3.1667 10.1348 2.95745 10.358 2.77609L12.5622 0.878864C13.9293 -0.292955 16.0637 -0.292955 17.4309 0.878864L19.635 2.77609C19.8582 2.9714 20.4162 3.1667 20.7092 3.1667H23.0807C25.1453 3.1667 26.8194 4.84073 26.8194 6.90536V9.2769C26.8194 9.56985 27.0286 10.1279 27.2239 10.3511L29.1211 12.5552C30.293 13.9223 30.293 16.0567 29.1211 17.4238L27.2239 19.628C27.0286 19.8512 26.8194 20.4092 26.8194 20.7021V23.0737C26.8194 25.1383 25.1453 26.8123 23.0807 26.8123H20.7092C20.4162 26.8123 19.8582 27.0216 19.635 27.2029L17.4309 29.1002C16.7473 29.7 15.8684 29.993 14.9896 29.993ZM6.87048 5.25923C5.96372 5.25923 5.22436 5.99859 5.22436 6.90536V9.29084C5.22436 10.086 4.8477 11.1044 4.33154 11.7042L2.44826 13.9223C1.96001 14.4943 1.96001 15.4847 2.44826 16.0567L4.33154 18.2748C4.8477 18.8886 5.22436 19.893 5.22436 20.6882V23.0737C5.22436 23.9804 5.96372 24.7198 6.87048 24.7198H9.28387C10.093 24.7198 11.1113 25.0964 11.7252 25.6266L13.9293 27.5238C14.5013 28.012 15.5057 28.012 16.0777 27.5238L18.2818 25.6266C18.8956 25.1104 19.914 24.7198 20.7231 24.7198H23.0946C24.0014 24.7198 24.7408 23.9804 24.7408 23.0737V20.7021C24.7408 19.893 25.1174 18.8746 25.6475 18.2608L27.5448 16.0567C28.033 15.4847 28.033 14.4803 27.5448 13.9084L25.6475 11.7042C25.1174 11.0904 24.7408 10.0721 24.7408 9.26294V6.90536C24.7408 5.99859 24.0014 5.25923 23.0946 5.25923H20.7231C19.914 5.25923 18.8956 4.88258 18.2818 4.35247L16.0777 2.45524C15.5057 1.96698 14.5013 1.96698 13.9293 2.45524L11.7252 4.36642C11.1113 4.88258 10.079 5.25923 9.28387 5.25923H6.87048Z" fill="#292D32"/>
</svg>
