<svg width="32" height="32" viewBox="0 0 32 32" fill="none" xmlns="http://www.w3.org/2000/svg">
<path d="M24.4314 31.786C23.6424 31.786 22.63 31.5329 21.3645 30.7885L16.913 28.1533C16.4514 27.8853 15.5581 27.8853 15.1115 28.1533L10.6451 30.7885C8.00994 32.3518 6.46158 31.7265 5.76185 31.2203C5.077 30.7141 4.00506 29.4188 4.7048 26.4412L5.76185 21.8706C5.88095 21.3942 5.64274 20.5753 5.28543 20.218L1.5932 16.5258C-0.252921 14.6797 -0.104041 13.1015 0.149056 12.3273C0.402152 11.5531 1.20611 10.1834 3.76685 9.75167L8.51613 8.9626C8.96277 8.88816 9.60296 8.41174 9.7965 8.00977L12.4317 2.75429C13.6227 0.357313 15.1859 0 16.0048 0C16.8236 0 18.3869 0.357313 19.5779 2.75429L22.1982 7.99488C22.4066 8.39685 23.0468 8.87327 23.4935 8.94771L28.2428 9.73678C30.8184 10.1685 31.6223 11.5382 31.8605 12.3124C32.0988 13.0866 32.2476 14.6648 30.4164 16.5109L26.7242 20.218C26.3669 20.5753 26.1435 21.3793 26.2478 21.8706L27.3048 26.4412C27.9897 29.4188 26.9326 30.7141 26.2478 31.2203C25.8756 31.4882 25.28 31.786 24.4314 31.786ZM16.0048 25.7117C16.7343 25.7117 17.4638 25.8903 18.0444 26.2328L22.496 28.868C23.7912 29.6421 24.6101 29.6421 24.9227 29.4188C25.2354 29.1955 25.4587 28.4064 25.1312 26.9474L24.0741 22.3768C23.7912 21.1411 24.2528 19.548 25.146 18.6399L28.8383 14.9476C29.5678 14.2181 29.8953 13.5035 29.7464 13.0122C29.5827 12.5208 28.8978 12.1189 27.8854 11.9551L23.1362 11.166C21.9898 10.9725 20.7392 10.0494 20.2181 9.00726L17.5978 3.76667C17.1214 2.81384 16.5259 2.24809 16.0048 2.24809C15.4837 2.24809 14.8882 2.81384 14.4267 3.76667L11.7915 9.00726C11.2704 10.0494 10.0198 10.9725 8.87345 11.166L4.13905 11.9551C3.12666 12.1189 2.44181 12.5208 2.27804 13.0122C2.11428 13.5035 2.4567 14.233 3.18622 14.9476L6.87845 18.6399C7.77173 19.5332 8.23326 21.1411 7.95039 22.3768L6.89334 26.9474C6.55091 28.4213 6.78912 29.1955 7.10177 29.4188C7.41442 29.6421 8.21837 29.6272 9.52852 28.868L13.98 26.2328C14.5458 25.8903 15.2753 25.7117 16.0048 25.7117Z" fill="#292D32"/>
</svg>
