<svg width="28" height="29" viewBox="0 0 28 29" fill="none" xmlns="http://www.w3.org/2000/svg">
<path d="M26.0774 28.8591H1.0431C0.47287 28.8591 0 28.3863 0 27.816C0 27.2458 0.47287 26.7729 1.0431 26.7729H26.0774C26.6476 26.7729 27.1205 27.2458 27.1205 27.816C27.1205 28.3863 26.6476 28.8591 26.0774 28.8591Z" fill="#292D32"/>
<path d="M4.65922 8.87256H2.43395C1.66901 8.87256 1.04315 9.49842 1.04315 10.2634V22.252C1.04315 23.0169 1.66901 23.6428 2.43395 23.6428H4.65922C5.42415 23.6428 6.05001 23.0169 6.05001 22.252V10.2634C6.05001 9.48451 5.42415 8.87256 4.65922 8.87256Z" fill="#292D32"/>
<path d="M14.6718 4.43945H12.4465C11.6816 4.43945 11.0557 5.06531 11.0557 5.83025V22.2555C11.0557 23.0204 11.6816 23.6463 12.4465 23.6463H14.6718C15.4367 23.6463 16.0626 23.0204 16.0626 22.2555V5.83025C16.0626 5.06531 15.4367 4.43945 14.6718 4.43945Z" fill="#292D32"/>
<path d="M24.6871 0H22.4618C21.6969 0 21.071 0.625857 21.071 1.39079V22.2527C21.071 23.0176 21.6969 23.6435 22.4618 23.6435H24.6871C25.452 23.6435 26.0779 23.0176 26.0779 22.2527V1.39079C26.0779 0.625857 25.452 0 24.6871 0Z" fill="#292D32"/>
</svg>
