<svg width="29" height="29" viewBox="0 0 29 29" fill="none" xmlns="http://www.w3.org/2000/svg">
<path d="M27.119 28.0992H4.90102C2.19566 28.0992 0 25.9035 0 23.1982V0.980204C0 0.444359 0.444359 0 0.980204 0C1.51605 0 1.96041 0.444359 1.96041 0.980204V23.1982C1.96041 24.8188 3.28041 26.1388 4.90102 26.1388H27.119C27.6548 26.1388 28.0992 26.5831 28.0992 27.119C28.0992 27.6548 27.6548 28.0992 27.119 28.0992Z" fill="#292D32"/>
<path d="M4.90081 21.5642C4.67863 21.5642 4.44338 21.4858 4.26041 21.3289C3.85526 20.9761 3.80298 20.3618 4.15585 19.9436L10.1547 12.9384C10.8082 12.1804 11.7491 11.723 12.7424 11.6837C13.7357 11.6576 14.7159 12.0235 15.4216 12.7293L16.6632 13.9709C16.99 14.2976 17.4082 14.4545 17.8787 14.4545C18.3361 14.4414 18.7543 14.2323 19.0549 13.8794L25.0538 6.87424C25.4066 6.46909 26.0209 6.41681 26.4391 6.76968C26.8443 7.12256 26.8965 7.73682 26.5437 8.15504L20.5448 15.1602C19.8914 15.9182 18.9504 16.3757 17.9571 16.4149C16.9508 16.441 15.9836 16.0751 15.2779 15.3693L14.0493 14.1277C13.7226 13.801 13.2913 13.6311 12.8339 13.6442C12.3765 13.6572 11.9582 13.8663 11.6577 14.2192L5.65883 21.2244C5.44972 21.4466 5.17527 21.5642 4.90081 21.5642Z" fill="#292D32"/>
</svg>
