<svg width="28" height="28" viewBox="0 0 28 28" fill="none" xmlns="http://www.w3.org/2000/svg">
<path d="M27.356 12.698C27.286 11.984 26.684 11.452 25.97 11.452H15.4C14.63 11.452 14 12.082 14 12.852V15.246C14 16.016 14.63 16.646 15.4 16.646H21.714C21.56 17.934 20.72 19.88 18.858 21.182C17.668 22.008 16.086 22.582 14 22.582C13.902 22.582 13.818 22.582 13.72 22.568C10.15 22.456 7.126 20.062 6.034 16.772C5.74 15.89 5.572 14.966 5.572 14C5.572 13.034 5.74 12.096 6.02 11.228C6.104 10.976 6.202 10.724 6.314 10.472C7.602 7.57401 10.416 5.53 13.72 5.432C13.804 5.418 13.902 5.418 14 5.418C16.002 5.418 17.5 6.07599 18.55 6.80399C19.096 7.18199 19.824 7.09799 20.3 6.63599L22.246 4.732C22.862 4.13 22.806 3.10799 22.106 2.60399C19.88 0.965986 17.164 0 14 0C13.902 0 13.818 1.4006e-05 13.72 0.014014C8.358 0.112014 3.752 3.22001 1.498 7.71401C0.546 9.61801 0 11.746 0 14C0 16.254 0.546 18.382 1.498 20.286H1.512C3.766 24.78 8.372 27.888 13.72 27.986C13.818 28 13.902 28 14 28C17.78 28 20.958 26.754 23.268 24.612C25.914 22.162 27.44 18.578 27.44 14.308C27.44 13.706 27.412 13.188 27.356 12.698Z" fill="black"/>
</svg>
