<svg width="187" height="63" viewBox="0 0 187 63" fill="none" xmlns="http://www.w3.org/2000/svg">
<g clip-path="url(#clip0_79_19)">
<path d="M73.9648 25.5151C75.343 25.5151 77.0981 25.0977 77.6349 24.9713C77.9704 24.2572 78.4608 22.6642 78.7396 21.6535L78.0892 21.3789C77.0826 23.4772 75.9418 24.6088 74.1455 24.6088C71.3426 24.6088 69.3346 22.0051 69.3346 18.1434C69.3346 14.9959 70.9709 12.1011 73.9906 12.1011C75.725 12.1011 77.1239 12.8976 77.7175 15.2925L78.4092 15.1442C78.2698 13.9083 78.1305 12.9635 77.9756 11.8099C77.4439 11.6836 76.0244 11.2441 74.4242 11.2441C69.8095 11.2441 66.6762 14.2049 66.6762 18.5664C66.6762 21.8842 68.8649 25.5151 73.9751 25.5151H73.9648Z" fill="#004C23"/>
<path d="M87.076 25.5151C90.7616 25.5151 93.802 22.7466 93.802 18.2313C93.802 14.0566 90.8235 11.2441 87.3134 11.2441C82.9568 11.2441 80.5101 14.7927 80.5101 18.4401C80.5101 22.472 83.2717 25.5096 87.076 25.5096V25.5151ZM86.9366 12.0846C89.3421 12.0846 91.1384 14.54 91.1384 18.8026C91.1384 22.7247 89.4608 24.6802 87.4683 24.6802C84.8461 24.6802 83.1684 21.7029 83.1684 17.9841C83.1684 14.2653 84.8822 12.0846 86.9366 12.0846Z" fill="#004C23"/>
<path d="M96.832 13.0077C97.2088 13.4911 97.2243 13.7822 97.2243 15.2104V19.6817C97.2243 21.5494 97.1262 22.4942 97.0643 23.1863C96.9662 24.1311 96.4913 24.4442 95.3867 24.5321V25.2023H100.156V24.5321C98.7367 24.4497 98.3599 24.1146 98.2618 23.1259C98.2051 22.4942 98.1225 21.5494 98.1225 19.6817V14.749H98.1638L106.443 25.411H107.275V17.0396C107.275 15.15 107.352 14.1667 107.429 13.535C107.527 12.5902 107.961 12.2991 109.024 12.2331V11.563H104.27V12.2331C105.69 12.3155 106.103 12.6561 106.221 13.557C106.263 14.1667 106.361 15.15 106.361 17.0396V21.2363H106.304L98.5148 11.563H95.1234V12.2331C96.0113 12.3155 96.4242 12.4858 96.8217 13.0077H96.832Z" fill="#004C23"/>
<path d="M122.523 21.6535L121.872 21.3789C120.866 23.4772 119.725 24.6088 117.929 24.6088C115.126 24.6088 113.118 22.0051 113.118 18.1434C113.118 14.9959 114.754 12.1011 117.774 12.1011C119.508 12.1011 120.907 12.8976 121.501 15.2925L122.192 15.1442C122.053 13.9083 121.914 12.9635 121.759 11.8099C121.227 11.6836 119.808 11.2441 118.207 11.2441C113.593 11.2441 110.459 14.2049 110.459 18.5664C110.459 21.8842 112.648 25.5151 117.758 25.5151C119.137 25.5151 120.892 25.0977 121.423 24.9713C121.759 24.2572 122.254 22.6642 122.528 21.6535H122.523Z" fill="#004C23"/>
<path d="M130.864 25.5151C134.55 25.5151 137.59 22.7466 137.59 18.2313C137.59 14.0566 134.612 11.2441 131.102 11.2441C126.745 11.2441 124.298 14.7927 124.298 18.4401C124.298 22.472 127.06 25.5096 130.864 25.5096V25.5151ZM130.725 12.0846C133.13 12.0846 134.927 14.54 134.927 18.8026C134.927 22.7247 133.249 24.6802 131.262 24.6802C128.64 24.6802 126.962 21.7029 126.962 17.9841C126.962 14.2653 128.676 12.0846 130.73 12.0846H130.725Z" fill="#004C23"/>
<path d="M144.982 24.532C143.465 24.3837 143.289 24.1969 143.289 22.4776V19.3081H143.743C144.512 19.3081 144.869 19.5608 145.183 20.1925C145.756 21.2636 146.366 22.4611 146.939 23.3839C147.77 24.7298 148.554 25.2736 150.686 25.3779C150.903 25.3779 151.14 25.3999 151.295 25.3999L151.414 24.7682C150.96 24.6199 150.583 24.3672 150.134 23.8234C149.7 23.362 149.287 22.7303 148.575 21.5767C147.981 20.6319 147.233 19.2257 146.918 18.5775C148.281 17.9678 149.401 16.9406 149.401 15.1169C149.401 13.815 148.869 12.8922 148.079 12.3264C147.29 11.7826 146.304 11.5684 144.688 11.5684H139.382V12.2605C140.858 12.3868 141.038 12.5571 141.038 14.2764V22.4831C141.038 24.2244 140.822 24.3947 139.304 24.5375V25.2076H144.982V24.5375V24.532ZM143.289 13.3866C143.289 12.9032 143.33 12.6725 143.465 12.5461C143.604 12.4418 143.898 12.3374 144.409 12.3374C145.674 12.3374 146.933 13.1778 146.933 15.4245C146.933 16.5176 146.639 17.3581 145.947 17.9623C145.493 18.3633 144.843 18.5281 143.934 18.5281H143.284V13.3866H143.289Z" fill="#004C23"/>
<path d="M163.219 23.4611C164.716 22.2416 165.666 20.396 165.666 17.8582C165.666 15.8642 164.938 14.3536 163.952 13.3648C162.708 12.1069 160.819 11.5576 158.331 11.5576H152.534V12.2497C153.974 12.3761 154.15 12.5024 154.15 14.3096V22.4723C154.15 24.2576 153.974 24.3839 152.353 24.5268V25.1969H157.283C159.73 25.1969 161.758 24.6531 163.219 23.4556V23.4611ZM156.457 22.3295V13.8317C156.457 13.1396 156.514 12.8265 156.674 12.6562C156.829 12.5079 157.268 12.3596 158.037 12.3596C159.379 12.3596 160.442 12.7386 161.289 13.5131C162.435 14.4799 163.085 16.1553 163.085 18.2372C163.085 21.8242 161.289 24.3455 158.274 24.3455C156.891 24.3455 156.457 23.8621 156.457 22.3295Z" fill="#004C23"/>
<path d="M167.457 12.2551C168.975 12.3815 169.155 12.5298 169.155 14.315V22.4777C169.155 24.263 168.98 24.3893 167.457 24.5321V25.2023H173.114V24.5321C171.597 24.3838 171.437 24.2355 171.437 22.4777V14.315C171.437 12.5298 171.597 12.3815 173.114 12.2551V11.563H167.457V12.2551Z" fill="#004C23"/>
<path d="M184.827 22.2852C183.547 18.6763 182.303 14.897 181.038 11.2441L180.171 11.4968L176.129 22.3456C175.458 24.1529 175.2 24.3396 173.92 24.5264V25.1965H178.276V24.5264C176.836 24.3396 176.738 24.0869 177.074 22.9499C177.311 22.1094 177.585 21.3129 177.843 20.5384H181.766C182.122 21.5436 182.458 22.5324 182.674 23.2245C182.953 24.1089 182.829 24.3341 181.647 24.5264V25.1965H186.99V24.5264C185.725 24.3561 185.472 24.1254 184.822 22.2797L184.827 22.2852ZM178.163 19.5167C178.715 17.9402 179.247 16.3033 179.82 14.6883H179.877L181.436 19.5167H178.163Z" fill="#004C23"/>
<path d="M75.885 34.09C77.2478 34.1723 77.6814 34.5294 77.8001 35.2874C77.8775 35.9356 77.9756 36.7761 77.9756 38.413V40.407C77.9756 43.9116 76.9897 46.0319 74.4655 46.0319C72.2149 46.0319 71.0948 44.1642 71.0948 40.9343V36.2982C71.0948 34.3481 71.2703 34.2218 72.7518 34.0954V33.4033H67.1098V34.0954C68.6068 34.2438 68.7874 34.3481 68.7874 36.2982V41.3573C68.7874 43.8127 69.3397 45.3672 70.465 46.312C71.3942 47.0646 72.5969 47.3612 73.8358 47.3612C75.1985 47.3612 76.5354 46.8558 77.4439 45.8506C78.5692 44.5927 78.9047 42.8075 78.9047 40.5004V38.424C78.9047 36.7651 78.9667 35.9466 79.0441 35.3369C79.1422 34.5404 79.6171 34.1614 80.7424 34.1009V33.4088H75.8902V34.1009L75.885 34.09Z" fill="#004C23"/>
<path d="M90.8133 34.0681C92.2328 34.1505 92.6457 34.4911 92.7645 35.3919C92.8058 36.0017 92.9038 36.9849 92.9038 38.8745V43.0712H92.847L85.0577 33.3979H81.6664V34.0681C82.5542 34.1505 82.9672 34.3208 83.3646 34.8426C83.7415 35.326 83.7569 35.6172 83.7569 37.0453V41.5167C83.7569 43.3843 83.6589 44.3292 83.5969 45.0213C83.4988 45.9661 83.024 46.2792 81.9193 46.3671V47.0372H86.6941V46.3671C85.2745 46.2847 84.8977 45.9496 84.7996 44.9609C84.7429 44.3292 84.6603 43.3843 84.6603 41.5167V36.5839H84.7016L92.9864 47.246H93.8123V38.8745C93.8123 36.9849 93.8897 36.0017 93.9723 35.37C94.0704 34.4252 94.504 34.134 95.5674 34.0681V33.3979H90.8133V34.0681Z" fill="#004C23"/>
<path d="M97.0798 34.0901C98.5974 34.2164 98.778 34.3647 98.778 36.15V44.3127C98.778 46.0979 98.6025 46.2243 97.0798 46.3671V47.0372H102.737V46.3671C101.22 46.2188 101.06 46.0705 101.06 44.3127V36.15C101.06 34.3647 101.22 34.2164 102.737 34.0901V33.3979H97.0798V34.0901Z" fill="#004C23"/>
<path d="M113.092 34.0902C114.687 34.2989 114.749 34.5516 114.315 35.9139C113.742 37.8475 112.679 40.8686 111.616 43.7635H111.574C110.63 41.2037 109.128 37.029 108.575 35.4085C108.26 34.5077 108.281 34.2989 109.716 34.0847V33.3926H104.214V34.0847C105.416 34.211 105.731 34.4637 106.325 36.0567C107.254 38.5561 109.024 43.4229 110.366 47.2626H111.213C112.731 42.9176 114.625 37.9683 115.234 36.4357C116.003 34.4857 116.339 34.255 117.64 34.0847V33.3926H113.082V34.0847L113.092 34.0902Z" fill="#004C23"/>
<path d="M129.336 43.6206L128.686 43.4942C128.351 44.3786 127.994 45.0707 127.623 45.5102C127.168 46.054 126.518 46.2023 125.315 46.2023C124.505 46.2023 123.818 46.1803 123.462 45.9716C123.085 45.7409 122.987 45.2575 122.987 44.2523V40.517H124.505C126.198 40.517 126.399 40.5994 126.652 42.11H127.323V37.9572H126.652C126.394 39.4074 126.198 39.5337 124.505 39.5337H122.987V34.98C122.987 34.3098 123.044 34.2659 123.736 34.2659H124.882C126.105 34.2659 126.637 34.4142 126.952 34.8097C127.267 35.2107 127.504 35.8149 127.679 36.6114L128.351 36.507C128.273 35.2876 128.175 33.8209 128.154 33.3979H119.064V34.0901C120.504 34.2164 120.68 34.2988 120.68 36.15V44.3127C120.68 46.0759 120.504 46.2243 118.786 46.3671V47.0372H128.645C128.82 46.4055 129.218 44.4555 129.336 43.6151V43.6206Z" fill="#004C23"/>
<path d="M142.825 46.5978C142.37 46.4495 141.993 46.1968 141.544 45.653C141.111 45.1916 140.698 44.5599 139.985 43.4063C139.392 42.4615 138.643 41.0553 138.329 40.4071C139.691 39.7974 140.811 38.7702 140.811 36.9465C140.811 35.6446 140.28 34.7218 139.49 34.156C138.7 33.6122 137.714 33.3979 136.099 33.3979H130.792V34.0901C132.274 34.2164 132.449 34.3867 132.449 36.106V44.3127C132.449 46.054 132.232 46.2243 130.715 46.3671V47.0372H136.393V46.3671C134.875 46.2188 134.7 46.032 134.7 44.3127V41.1432H135.154C135.923 41.1432 136.279 41.3959 136.594 42.0276C137.167 43.0987 137.776 44.2962 138.349 45.219C139.18 46.5648 139.965 47.1086 142.097 47.213C142.314 47.213 142.551 47.235 142.706 47.235L142.825 46.6033V46.5978ZM137.363 39.7974C136.909 40.1984 136.259 40.3632 135.35 40.3632H134.7V35.2216C134.7 34.7383 134.741 34.5075 134.875 34.3812C135.015 34.2768 135.309 34.1725 135.82 34.1725C137.085 34.1725 138.344 35.0129 138.344 37.2596C138.344 38.3527 138.05 39.1931 137.358 39.7974H137.363Z" fill="#004C23"/>
<path d="M148.755 38.9182C147.078 38.0338 146.273 37.3417 146.273 36.0454C146.273 34.8698 147.042 33.9031 148.286 33.9031C149.922 33.9031 150.593 35.4137 150.985 36.7375L151.615 36.5892C151.455 35.2653 151.336 34.3865 151.259 33.6064C150.748 33.4362 149.741 33.0791 148.595 33.0791C145.896 33.0791 144.259 34.8643 144.259 37.0451C144.259 39.2258 145.875 40.297 147.63 41.2638C149.112 42.0822 150.056 42.8568 150.056 44.2026C150.056 45.5484 149.246 46.5316 147.924 46.5316C145.994 46.5316 144.925 44.263 144.574 42.9447L143.903 43.1534C144.043 44.3289 144.301 46.0922 144.476 46.5975C144.714 46.7239 145.07 46.8722 145.602 47.037C146.133 47.2238 146.804 47.3501 147.553 47.3501C150.356 47.3501 152.209 45.5264 152.209 43.1973C152.209 41.0166 150.629 39.9235 148.755 38.9182Z" fill="#004C23"/>
<path d="M153.763 34.0901C155.28 34.2164 155.461 34.3647 155.461 36.15V44.3127C155.461 46.0979 155.285 46.2243 153.763 46.3671V47.0372H159.42V46.3671C157.902 46.2188 157.742 46.0705 157.742 44.3127V36.15C157.742 34.3647 157.897 34.2164 159.42 34.0901V33.3979H153.763V34.0901Z" fill="#004C23"/>
<path d="M171.907 32.8761C171.571 33.2771 171.334 33.3979 170.823 33.3979H162.935C162.383 33.3979 162.125 33.354 161.831 32.8761H161.376C161.335 33.9692 161.216 35.4578 161.139 36.886H161.81C162.047 35.8808 162.264 35.2052 162.558 34.8481C162.837 34.4471 163.209 34.2604 164.825 34.2604H165.712V44.3127C165.712 46.054 165.516 46.2243 163.818 46.3671V47.0372H169.971V46.3671C168.175 46.2188 167.999 46.054 167.999 44.3127V34.2604H169.062C170.343 34.2604 170.776 34.3867 171.132 34.8042C171.427 35.1612 171.664 35.8094 171.901 36.8586L172.552 36.8146C172.454 35.5128 172.356 33.7715 172.356 32.8706H171.901L171.907 32.8761Z" fill="#004C23"/>
<path d="M181.957 34.0901C183.433 34.2604 183.474 34.513 183.098 35.4359C182.607 36.7158 181.58 38.7097 180.95 39.9677C180.14 38.4131 179.293 36.7982 178.545 35.2656C178.189 34.5295 178.168 34.2768 179.489 34.0901V33.3979H174.204V34.0901C175.329 34.2384 175.602 34.4471 176.372 35.8533C177.497 37.9737 178.225 39.3579 178.818 40.5554C179.056 41.0608 179.133 41.2695 179.133 41.7529V44.2523C179.133 46.0979 178.958 46.2462 177.259 46.3726V47.0427H183.35V46.3726C181.575 46.2243 181.42 46.0979 181.42 44.2523V41.5002C181.42 40.8905 181.497 40.6378 181.776 40.094C182.721 38.1659 183.294 37.1552 184.083 35.8149C184.811 34.557 185.147 34.2384 186.453 34.0956V33.4034H181.957V34.0956V34.0901Z" fill="#004C23"/>
<path d="M105.762 54.7495C106.536 54.8154 106.624 54.8868 106.624 55.7932V59.9459C106.624 60.8523 106.536 60.9182 105.762 60.9896V61.3302H108.637V60.9896C107.863 60.9182 107.786 60.8413 107.786 59.9459V55.7932C107.786 54.8868 107.868 54.8099 108.637 54.7495V54.3979H105.762V54.7495Z" fill="#004C23"/>
<path d="M116.7 60.6272C116.478 60.391 116.267 60.0724 115.91 59.4847C115.611 59.0068 115.229 58.2872 115.069 57.9576C115.761 57.65 116.334 57.1281 116.334 56.1943C116.334 55.5351 116.065 55.0627 115.663 54.7771C115.26 54.5024 114.759 54.3926 113.939 54.3926H111.239V54.7441C111.993 54.8101 112.08 54.8924 112.08 55.7713V59.9461C112.08 60.8305 111.972 60.9183 111.198 60.9898V61.3303H114.088V60.9898C113.314 60.9183 113.226 60.8195 113.226 59.9461V58.3366H113.458C113.851 58.3366 114.031 58.4629 114.191 58.787C114.481 59.3308 114.795 59.9406 115.084 60.4075C115.508 61.0886 115.905 61.3688 116.989 61.4182C117.098 61.4182 117.222 61.4292 117.299 61.4292L117.361 61.1106C117.129 61.0337 116.943 60.9074 116.71 60.6327L116.7 60.6272ZM113.551 57.9356H113.221V55.3209C113.221 55.0737 113.242 54.9584 113.309 54.8924C113.381 54.8375 113.531 54.7826 113.789 54.7826C114.429 54.7826 115.074 55.211 115.074 56.3536C115.074 56.9084 114.924 57.3369 114.573 57.6445C114.341 57.8477 114.011 57.9301 113.551 57.9301V57.9356Z" fill="#004C23"/>
<path d="M123.333 54.7495C124.144 54.8594 124.175 54.9857 123.958 55.6778C123.669 56.6611 123.127 58.1937 122.585 59.6658H122.564C122.084 58.3639 121.32 56.2436 121.041 55.4197C120.881 54.9582 120.892 54.8539 121.625 54.7495V54.3979H118.827V54.7495C119.436 54.8154 119.601 54.9418 119.901 55.7547C120.37 57.0236 121.274 59.501 121.955 61.4511H122.389C123.163 59.2428 124.123 56.7215 124.433 55.947C124.825 54.9527 124.995 54.8374 125.656 54.7495V54.3979H123.338V54.7495H123.333Z" fill="#004C23"/>
<path d="M127.953 54.7495C128.727 54.8154 128.815 54.8868 128.815 55.7932V59.9459C128.815 60.8523 128.727 60.9182 127.953 60.9896V61.3302H130.828V60.9896C130.054 60.9182 129.977 60.8413 129.977 59.9459V55.7932C129.977 54.8868 130.059 54.8099 130.828 54.7495V54.3979H127.953V54.7495Z" fill="#004C23"/>
<path d="M137.854 54.7385C138.576 54.7825 138.788 54.9528 138.845 55.4087C138.865 55.7163 138.917 56.2216 138.917 57.1774V59.3142H138.886L134.927 54.3979H133.203V54.7385C133.652 54.7825 133.863 54.8649 134.065 55.134C134.256 55.3812 134.266 55.5295 134.266 56.2546V58.5287C134.266 59.479 134.215 59.9569 134.184 60.314C134.132 60.7919 133.894 60.9567 133.332 60.9951V61.3357H135.758V60.9951C135.035 60.9512 134.844 60.7809 134.793 60.281C134.762 59.9624 134.72 59.479 134.72 58.5287V56.0239H134.741L138.953 61.4456H139.371V57.1884C139.371 56.2271 139.413 55.7273 139.454 55.4087C139.505 54.9308 139.727 54.777 140.264 54.744V54.4034H137.848V54.744L137.854 54.7385Z" fill="#004C23"/>
<path d="M147.031 60.5557C146.799 60.8303 146.469 60.9072 145.86 60.9072C145.447 60.9072 145.096 60.8962 144.915 60.7919C144.724 60.6765 144.672 60.4293 144.672 59.9185V58.0179H145.447C146.309 58.0179 146.412 58.0618 146.541 58.8309H146.882V56.716H146.541C146.412 57.4521 146.309 57.518 145.447 57.518H144.672V55.1999C144.672 54.8594 144.703 54.8374 145.054 54.8374H145.638C146.257 54.8374 146.531 54.9143 146.691 55.112C146.851 55.3153 146.97 55.6229 147.062 56.0294L147.403 55.9745C147.362 55.3537 147.315 54.6067 147.305 54.3979H142.685V54.7495C143.418 54.8154 143.506 54.8594 143.506 55.7932V59.9459C143.506 60.8413 143.418 60.9182 142.541 60.9896V61.3302H147.553C147.641 61.0116 147.842 60.0174 147.904 59.5889L147.573 59.523C147.403 59.9734 147.222 60.325 147.031 60.5502V60.5557Z" fill="#004C23"/>
<path d="M28.5453 0C12.8067 0 0 13.6283 0 30.3767V63H57.0906V30.3767C57.0906 13.6283 44.2839 0 28.5453 0ZM55.4336 61.2422H1.65697V30.3767C1.65697 14.6006 13.7152 1.76327 28.5453 1.76327C43.3754 1.76327 55.4336 14.6006 55.4336 30.3822V61.2477V61.2422Z" fill="#004C23"/>
<path d="M28.5453 3.78467C14.7682 3.78467 3.55652 15.7156 3.55652 30.3766V59.2152H53.534V30.3766C53.534 15.7156 42.3224 3.78467 28.5453 3.78467ZM5.21349 50.267L7.11823 49.3002L16.4458 27.1192L23.1201 25.3779L15.5011 47.4985L5.21349 52.5356V50.2615V50.267ZM39.7775 53.0575L48.2895 57.4519H8.801L17.313 53.0575H39.7724H39.7775ZM41.5945 47.4985L33.9756 25.3779L40.6499 27.1192L49.9774 49.3002L51.8822 50.267V52.5411L41.5945 47.504V47.4985ZM51.8822 44.6915L48.6973 42.8953L41.5687 25.9437L32.6593 23.6201V42.8953H29.6809V18.7093H37.4186V16.2924H29.6809V9.60183H27.4096V16.2924H19.672V18.7093H27.4096V42.8953H24.4312V23.6201L15.5218 25.9437L8.39322 42.8953L5.20833 44.6915V30.3766C5.21349 16.6879 15.6818 5.54794 28.5453 5.54794C41.4087 5.54794 51.877 16.6879 51.877 30.3766V44.6915H51.8822Z" fill="#004C23"/>
</g>
<defs>
<clipPath id="clip0_79_19">
<rect width="187" height="63" fill="white"/>
</clipPath>
</defs>
</svg>
