<svg width="260" height="78" viewBox="0 0 260 78" fill="none" xmlns="http://www.w3.org/2000/svg">
<path d="M84.9693 28.9521L76.9483 43.5225L68.4294 28.9521H62.8862L75.0412 49.0423H78.4069L90.0523 28.9521H84.9693Z" fill="#009EE2"/>
<path d="M243.942 41.4297H246.697C248.351 41.4297 249.555 41.1307 250.292 40.5314C251.037 39.9191 251.407 38.9389 251.407 37.5765V32.8575C251.407 31.4795 251.037 30.4811 250.292 29.8714C249.557 29.263 248.353 28.9536 246.697 28.9536H228.606V49.0412H233.428V41.431H238.044L246.467 49.0412H253.5L243.942 41.4297ZM233.429 37.9717V32.4129H244.617C245.463 32.4129 246.051 32.5403 246.366 32.7834C246.684 33.0304 246.843 33.449 246.843 34.0353V36.348C246.843 36.9343 246.684 37.3516 246.366 37.5999C246.051 37.8443 245.467 37.9717 244.617 37.9717H233.429Z" fill="#009EE2"/>
<path d="M92.9994 28.9521L81.0745 49.0423H85.969L88.5027 44.6315H101.789L104.324 49.0423H109.818L97.7106 28.9521H92.9994ZM90.584 40.9654L95.1132 32.5947L99.7932 40.9654H90.584Z" fill="#009EE2"/>
<path d="M62.5287 31.5417C60.4461 29.814 57.4704 28.9521 53.5899 28.9521H40.0647V49.0423H52.3549C56.8126 49.0423 60.138 48.2026 62.3467 46.5165C64.5476 44.8278 65.6487 42.2966 65.6487 38.9296C65.6487 35.7225 64.6126 33.2603 62.5287 31.5417ZM58.5468 43.7747C57.1753 44.7783 54.7612 45.2789 51.3175 45.2789H45.0073V32.5466H53.6315C55.9975 32.5466 57.7564 33.0562 58.8952 34.0676C60.0444 35.0803 60.6138 36.6247 60.6138 38.693C60.6125 41.0746 59.9248 42.7673 58.5468 43.7747Z" fill="#009EE2"/>
<path d="M20.3723 24.5166L6.50128 49.0398H12.1862L15.0384 43.6877H30.5812L33.527 49.0398H39.9347L25.8687 24.5166H20.3723ZM17.4746 39.2534L22.9216 29.2759L28.2113 39.2534H17.4746Z" fill="#009EE2"/>
<path d="M137.823 32.5466H147.523V49.0397H152.416V32.5466H162.14V28.9521H137.823V32.5466Z" fill="#009EE2"/>
<path d="M221.29 45.2789H207.299V28.9521H202.427V44.2792C202.427 46.1252 202.782 47.3771 203.502 48.044C204.225 48.7083 205.603 49.0437 207.646 49.0437H220.94C223.001 49.0437 224.394 48.703 225.131 48.0309C225.868 47.3575 226.234 46.1135 226.234 44.2857V28.9521H221.295V45.2789H221.29Z" fill="#009EE2"/>
<path d="M6.5 49.042L6.501 49.04H6.5V49.042Z" fill="#009EE2"/>
<path d="M131.956 42.285L114.908 28.9521H111.544V49.0423H116.002V35.4924L133.002 49.0423H136.389V28.9521H131.956V42.285Z" fill="#009EE2"/>
<path d="M182.042 20.7207C170.439 20.7207 161.253 31.6823 163.856 43.1197C166.438 54.4817 179.379 60.5943 189.888 55.7635C196.345 52.7956 200.677 46.2241 200.677 39.0988C200.677 28.9653 192.319 20.7207 182.042 20.7207ZM186.499 22.2976C186.263 22.2625 185.93 22.178 185.559 22.087C185.874 22.1507 186.19 22.2183 186.499 22.2976ZM183.358 21.7893C182.828 21.827 182.389 21.9973 182.208 22.4549C180.643 22.2807 179.087 22.3171 177.514 22.3171C179.421 21.8179 181.399 21.6463 183.358 21.7893ZM199.45 41.8119C198.106 50.2229 190.503 56.4642 182.042 56.4642C178.971 56.4642 175.921 55.6647 173.252 54.1437C172.011 53.4352 168.669 51.6776 169.56 49.8914C170.218 49.9733 170.834 50.0279 171.499 50.0279C171.835 50.0279 172.81 49.0802 172.74 48.7123C172.041 48.4003 170.938 48.1793 170.555 47.4916C170.14 46.7428 169.58 45.877 169.546 44.9982C169.507 43.9413 169.491 42.8961 169.491 41.8366C169.491 41.5493 169.339 40.7459 169.58 40.5548C169.976 40.2415 170.108 39.7683 170.318 39.3133C169.855 38.9779 169.156 38.6906 168.99 38.1225C168.765 37.3607 168.799 36.569 167.972 36.3415L167.764 36.6847C167.517 35.4471 167.259 34.6411 167.916 33.5166C168.331 32.8029 167.474 31.2104 167.214 30.4668L166.466 30.9842C168.527 27.1583 171.998 24.1787 176.188 22.7201L177.579 23.3532L177.302 23.4897L177.784 24.0422C178.159 23.7458 178.326 23.4533 178.792 23.5651C179.271 23.6795 179.759 23.8355 180.249 23.9109C180.779 23.9941 182.844 24.3698 182.693 23.2817C183.006 23.2817 183.503 23.3844 183.802 23.2817C184.053 23.1946 184.358 22.6044 184.635 22.6811C185.35 22.8839 186.108 22.6746 186.841 22.5901L186.651 22.3353C195.13 24.6064 200.844 33.0889 199.45 41.8119Z" fill="#009EE2"/>
<path d="M182.967 52.7217L183.175 53.0675C183.407 52.97 183.596 52.8231 183.658 52.5826L183.175 52.2368L182.967 52.7217Z" fill="#009EE2"/>
<path d="M189.602 51.7543C190.108 52.1196 190.013 52.5057 190.013 53.0673C189.468 53.0673 188.952 52.7748 188.423 52.8619C188.581 53.339 190.117 54.2074 190.586 53.7394C191.431 52.8983 190.498 52.0546 189.944 51.4111L189.602 51.7543Z" fill="#009EE2"/>
<path d="M194.285 30.762C194.564 29.7558 194.512 29.5634 194.093 28.6053L194.507 28.6742C193.634 27.5393 192.747 26.4408 191.814 25.3579L191.121 25.6348C191.352 26.0521 191.682 26.4031 191.4 26.8789L189.951 27.1558C190.151 27.4782 190.369 27.7226 190.294 28.1243C189.92 27.6576 189.116 27.9813 188.636 28.1243C188.487 27.9462 187.255 27.0947 187.206 27.161C187.097 27.3157 187.027 27.4886 186.909 27.642C186.738 27.642 186.2 27.5562 186.111 27.6966C185.749 28.2647 185.723 28.3869 185.078 28.526C184.651 28.617 184.456 28.3596 184.072 28.5039C183.644 28.6651 183.449 29.0707 183.178 29.436C182.816 28.7717 181.072 29.4009 180.413 29.2995C179.808 29.2072 179.582 29.0135 179.582 28.4441C179.582 27.8526 179.481 27.4457 179.306 26.8789C178.846 26.7918 178.322 26.6046 177.856 26.602C177.325 26.5994 176.797 26.9257 176.264 26.9491C175.799 26.9686 175.116 26.6033 174.673 26.7411C174.287 26.8607 173.807 27.5029 173.501 27.7772L174.053 28.0541C173.445 28.2374 173.008 28.4805 172.463 28.8146C172.253 28.5728 171.935 28.5611 171.631 28.6066C171.413 27.876 173.152 26.8841 173.637 26.4668C173.014 26.7086 172.489 26.862 172.004 27.317C171.461 27.8279 170.842 28.0983 170.292 28.5663C169.599 29.1474 169.069 29.4815 168.759 30.3265C168.676 30.5592 169.006 30.866 169.006 31.1442C169.006 31.5667 169.006 31.9879 169.006 32.4104L170.044 31.9957C170.044 32.5248 170.174 33.2229 169.905 33.6896C169.623 34.1784 168.905 34.5411 169.074 35.1755L169.905 35.4524C169.968 36.1154 169.907 36.7251 170.314 37.2568C170.569 37.5909 170.643 37.7833 171.045 37.873C171.395 37.9523 171.501 38.107 171.561 38.4931C170.709 39.0989 170.4 39.2926 170.039 40.2585C169.78 40.9527 170.039 42.0317 170.066 42.7636C170.127 44.2768 170.526 45.6834 170.526 47.2044C170.955 47.3526 171.458 47.636 171.908 47.6867C172.41 47.7452 172.878 47.5216 173.391 47.6204C174.121 47.7569 174.412 47.8466 175.085 47.5801C175.505 47.4124 175.894 47.0445 176.264 46.7897C176.149 46.4478 176.095 46.2775 175.869 46.0487C175.444 45.6236 175.436 45.595 175.505 44.9931C174.838 45.4091 174.664 45.2388 173.914 44.9931C174.369 44.3548 173.399 43.2901 173.568 42.436L174.191 42.644C174.271 43.3278 174.524 43.7386 174.856 44.3483C175.175 44.9242 175.679 44.5108 176.016 45.1842C176.427 46.0097 178.086 46.323 178.893 46.3776C178.98 46.9288 179.69 46.9769 179.746 47.5203C179.809 48.1404 180.198 48.5746 180.825 48.1755C180.825 48.6474 180.658 49.4495 180.848 49.8824C181.135 50.5402 181.363 51.1317 181.536 51.8272C181.939 53.4314 183.771 51.484 183.456 50.5272C184.327 50.08 185.198 49.6328 186.069 49.1869C186.356 49.04 186.376 48.7228 186.74 48.5603C187.104 48.39 187.473 48.2626 187.814 48.0403C187.786 48.5174 188.197 48.8021 188.491 49.1193C188.735 49.3858 188.57 49.8733 188.712 50.2516L189.472 49.6978L190.3 51.2188L190.577 50.3868C191.054 50.6897 191.626 51.1395 192.145 50.6221C192.768 49.9942 193.137 49.8148 193.137 48.9386C192.804 48.7995 192.53 48.5928 192.239 48.3848C193.147 46.5674 195.461 46.1839 195.971 43.9622C196.048 43.632 196.269 42.9001 196.176 42.5803C196.057 42.1734 195.356 41.9264 195.272 41.5052C195.069 40.5393 194.567 39.2445 195.9 38.9195C196.258 39.4577 196.507 39.9023 196.73 40.5107L197.144 39.3368L196.518 38.7791C196.496 38.2773 196.375 37.6832 196.451 37.1879C196.552 36.5119 196.725 36.3507 196.598 35.6552C196.44 34.8141 196.171 34.0029 196.023 33.1631C195.915 32.5547 196.009 32.3506 195.344 32.3506L194.793 32.8329C194.611 32.2453 194.121 31.3483 194.285 30.762ZM174.067 37.1437C173.49 37.2672 172.951 36.8109 172.728 36.3312C172.412 35.6448 171.996 35.5096 171.293 35.2444C171.293 34.181 172.071 34.0861 172.974 33.7819L173.264 34.2928L172.83 34.5853C173.021 35.1339 173.554 35.026 173.809 35.6032C174.017 36.0803 174.265 36.6198 174.067 37.1437ZM177.362 37.2165H176.848C176.784 37.561 176.91 37.7768 177.057 38.0667C177.219 38.38 177.094 38.6322 176.992 38.9715C176.808 39.5903 176.832 40.109 176.628 40.7265C176.219 40.8279 175.386 40.4054 175.386 39.9647C175.386 39.4642 176.055 38.6764 175.748 38.2916C175.441 37.9068 175.704 37.2425 176.028 36.8564C176.488 36.3013 177.026 36.4781 177.698 36.5938L177.757 37.1359L177.362 37.2165ZM179.326 38.8376C179.338 38.6634 179.248 38.5425 179.033 38.5425C179.028 37.7703 179.702 37.6156 180.285 37.7014L180.075 37.8444C180.18 38.4086 179.872 38.7466 179.326 38.8376Z" fill="#009EE2"/>
</svg>
