<?xml version="1.0" encoding="UTF-8"?>
<svg width="281px" height="69px" viewBox="0 0 281 69" version="1.1" xmlns="http://www.w3.org/2000/svg" xmlns:xlink="http://www.w3.org/1999/xlink">
    <title>D8D6724F-DD42-490A-9245-AD4CF2311FA3</title>
    <g id="Navigation---Mega-menu" stroke="none" stroke-width="1" fill="none" fill-rule="evenodd">
        <g id="Homepage---Nav---3rd-level-Categories" transform="translate(-284.000000, -55.000000)" fill="#0072BC">
            <g id="header/white-blue-nav" transform="translate(-29.000000, -1.025174)">
                <g id="brand/logo" transform="translate(313.000000, 56.025174)">
                    <path d="M191.377685,54.9238704 C192.543982,54.9238704 193.432352,55.3159444 194.01426,56.3432778 L194.01426,56.3432778 L194.046519,56.3432778 L194.046519,55.1620926 L196.356778,55.1620926 L196.356778,63.4415556 C196.356778,64.8957037 195.844352,67.3610556 191.773482,67.3610556 C190.026519,67.3610556 187.990463,66.5372037 187.872593,64.5197593 L187.872593,64.5197593 L190.283352,64.5197593 C190.507926,65.4255 191.243685,65.7344444 192.098556,65.7344444 C193.448482,65.7344444 194.06513,64.8113333 194.046519,63.5457778 L194.046519,63.5457778 L194.046519,62.381963 L194.01426,62.381963 C193.484463,63.3038333 192.422389,63.7505 191.362797,63.7505 C188.710093,63.7505 187.581019,61.7305741 187.581019,59.3012037 C187.581019,57.0095556 188.898685,54.9238704 191.377685,54.9238704 Z M236.951334,54.9238704 C238.113908,54.9238704 239.003519,55.3159444 239.585426,56.3432778 L239.585426,56.3432778 L239.621408,56.3432778 L239.621408,55.1620926 L241.929185,55.1620926 L241.929185,63.4415556 C241.929185,64.8957037 241.414278,67.3610556 237.344648,67.3610556 C235.601408,67.3610556 233.564111,66.5372037 233.442519,64.5197593 L233.442519,64.5197593 L235.85576,64.5197593 C236.079093,65.4255 236.814852,65.7344444 237.669723,65.7344444 C239.020889,65.7344444 239.636297,64.8113333 239.621408,63.5457778 L239.621408,63.5457778 L239.621408,62.381963 L239.585426,62.381963 C239.056871,63.3038333 237.993556,63.7505 236.932723,63.7505 C234.2825,63.7505 233.152185,61.7305741 233.152185,59.3012037 C233.152185,57.0095556 234.469852,54.9238704 236.951334,54.9238704 Z M273.867093,55.1620926 L275.868408,61.2181481 L275.903148,61.2181481 L277.834982,55.1620926 L280.351204,55.1620926 L276.655037,65.1177963 C276.124,66.5372037 275.28526,67.1203519 273.609019,67.1203519 C273.112723,67.1203519 272.617667,67.0868519 272.12013,67.0359815 L272.12013,65.0334259 C272.582926,65.0681667 273.060611,65.1376481 273.540778,65.1177963 C274.377037,65.0334259 274.653723,64.1611852 274.377037,63.4589259 L271.2665,55.1620926 L273.867093,55.1620926 Z M125.764834,51.7922407 L125.764834,59.3892963 C125.764834,60.7230926 126.107278,62.0395185 128.279815,62.0395185 C130.195519,62.0395185 130.810926,61.2007778 130.810926,59.3892963 L130.810926,51.7922407 L133.49713,51.7922407 L133.49713,59.3892963 C133.49713,62.6909074 131.546685,64.2964259 128.279815,64.2964259 C124.995574,64.2964259 123.07863,62.707037 123.07863,59.3892963 L123.07863,51.7922407 L125.764834,51.7922407 Z M267.023167,54.9251111 C269.110093,54.9251111 271.027037,56.0194444 271.179648,58.2775926 L268.801148,58.2775926 C268.648537,57.285 268.014519,56.7552037 267.005797,56.7552037 C265.449908,56.7552037 264.936241,58.3272222 264.936241,59.6275185 C264.936241,60.8943148 265.432537,62.415463 266.953685,62.415463 C268.08276,62.415463 268.732908,61.6983148 268.88676,60.6188704 L271.23176,60.6188704 C270.924056,62.9638704 269.297445,64.248037 266.972297,64.248037 C264.303463,64.248037 262.506871,62.3645926 262.506871,59.7143704 C262.506871,56.9611667 264.148371,54.9251111 267.023167,54.9251111 Z M167.335852,54.9238704 C170.345889,54.9238704 171.801278,57.4537407 171.628815,60.1734444 L171.628815,60.1734444 L165.248926,60.1734444 C165.317167,61.7144444 166.071537,62.4142222 167.422704,62.4142222 C168.395445,62.4142222 169.182074,61.8174259 169.338408,61.2677778 L169.338408,61.2677778 L171.476204,61.2677778 C170.790074,63.3571852 169.338408,64.248037 167.335852,64.248037 C164.547908,64.248037 162.819556,62.3298519 162.819556,59.5927778 C162.819556,56.9413148 164.649648,54.9238704 167.335852,54.9238704 Z M247.660167,54.9238704 C250.671445,54.9238704 252.123111,57.4537407 251.95313,60.1734444 L251.95313,60.1734444 L245.572,60.1734444 C245.640241,61.7144444 246.394611,62.4142222 247.744537,62.4142222 C248.71976,62.4142222 249.506389,61.8174259 249.661482,61.2677778 L249.661482,61.2677778 L251.798037,61.2677778 C251.11563,63.3571852 249.661482,64.248037 247.660167,64.248037 C244.869741,64.248037 243.143871,62.3298519 243.143871,59.5927778 C243.143871,56.9413148 244.972723,54.9238704 247.660167,54.9238704 Z M202.08776,54.9238704 C205.099037,54.9238704 206.553185,57.4537407 206.383204,60.1734444 L206.383204,60.1734444 L200.002074,60.1734444 C200.069074,61.7144444 200.822204,62.4142222 202.173371,62.4142222 C203.148593,62.4142222 203.933982,61.8174259 204.090315,61.2677778 L204.090315,61.2677778 L206.228111,61.2677778 C205.544463,63.3571852 204.090315,64.248037 202.08776,64.248037 C199.301056,64.248037 197.571463,62.3298519 197.571463,59.5927778 C197.571463,56.9413148 199.402797,54.9238704 202.08776,54.9238704 Z M180.517482,55.1633333 L180.517482,60.1573148 C180.517482,61.6127037 180.944297,62.3310926 182.074611,62.3310926 C183.391037,62.3310926 183.955574,61.5953333 183.955574,59.7987407 L183.955574,55.1633333 L186.386185,55.1633333 L186.386185,64.0085741 L184.075926,64.0085741 L184.075926,62.7752778 L184.023815,62.7752778 C183.407167,63.7666296 182.347574,64.248037 181.321482,64.248037 C178.7395,64.248037 178.088111,62.7914074 178.088111,60.6027407 L178.088111,55.1633333 L180.517482,55.1633333 Z M211.599278,54.9238704 C214.609315,54.9238704 216.063463,57.4537407 215.892241,60.1734444 L215.892241,60.1734444 L209.512352,60.1734444 C209.580593,61.7144444 210.332482,62.4142222 211.683648,62.4142222 C212.658871,62.4142222 213.446741,61.8174259 213.600593,61.2677778 L213.600593,61.2677778 L215.740871,61.2677778 C215.0535,63.3571852 213.600593,64.248037 211.599278,64.248037 C208.810093,64.248037 207.082982,62.3298519 207.082982,59.5927778 C207.082982,56.9413148 208.913074,54.9238704 211.599278,54.9238704 Z M113.428148,54.9238704 C116.439426,54.9238704 117.893574,57.4537407 117.724834,60.1734444 L111.342463,60.1734444 C111.410704,61.7144444 112.162593,62.4142222 113.51376,62.4142222 C114.491463,62.4142222 115.275611,61.8174259 115.429463,61.2677778 L117.5685,61.2677778 C116.883611,63.3571852 115.429463,64.2467963 113.428148,64.2467963 C110.642685,64.2467963 108.911852,62.3298519 108.911852,59.5927778 C108.911852,56.9413148 110.744426,54.9238704 113.428148,54.9238704 Z M46.224667,56.8097963 C56.7734448,57.390463 56.0488522,59.8607778 61.7066299,59.4699444 C62.3369262,59.4227963 61.2252225,60.2478889 61.2252225,60.2478889 C61.2252225,60.2478889 61.2188823,60.2503283 61.206366,60.2549514 L61.1504526,60.2751159 C60.4710774,60.5153186 55.2450835,62.2134956 48.8848151,60.0506111 C45.6777209,58.9518246 43.0018275,58.0581799 40.30862,58.2581688 C45.3745586,60.2997006 48.162704,63.7281667 48.162704,63.7281667 L48.162704,63.7281667 L47.1874818,64.2120556 C44.0230077,60.7238922 41.3961114,59.0529649 38.8605615,58.4748984 C36.3226576,59.0534032 33.6842793,60.7243497 30.4982781,64.2120556 L29.5292596,63.7281667 C29.5292596,63.7281667 32.3414254,60.3001484 37.4209738,58.2589842 L37.4078288,58.2577257 C34.7156048,58.0595054 32.0299222,58.9526394 28.804667,60.0506111 C21.9781114,62.3707963 16.4655003,60.2478889 16.4655003,60.2478889 C16.4655003,60.2478889 15.3537966,59.4227963 15.9840929,59.4699444 C21.6443522,59.8607778 20.9185188,57.390463 31.5156855,56.8097963 C34.2823946,56.657157 36.7430518,57.0606187 38.8678516,57.7389438 C40.9963717,57.0605401 43.459529,56.6571719 46.224667,56.8097963 Z M228.431167,51.7934815 L233.000815,64.0085741 L230.210389,64.0085741 L229.286037,61.2876296 L224.720111,61.2876296 L223.759778,64.0085741 L221.041315,64.0085741 L225.677963,51.7934815 L228.431167,51.7934815 Z M158.046426,51.7934815 C160.237574,51.7934815 161.622241,53.3171111 161.622241,55.1633333 C161.622241,56.5988704 161.040334,57.6783148 159.689167,58.2254815 L159.689167,58.2254815 L159.689167,58.2602222 C161.008074,58.6026667 161.382778,59.8843519 161.468389,61.1164074 C161.51926,61.8844259 161.50313,63.3212037 161.982056,64.0085741 L161.982056,64.0085741 L159.295852,64.0085741 C158.970778,63.2380741 159.004278,62.0568889 158.867797,61.0804259 C158.680445,59.7987407 158.182908,59.232963 156.831741,59.232963 L156.831741,59.232963 L154.146778,59.232963 L154.146778,64.0085741 L151.460574,64.0085741 L151.460574,51.7934815 Z M258.076185,54.9238704 C260.658167,54.9238704 261.309556,56.3780185 261.309556,58.5666852 L261.309556,64.0073333 L258.878945,64.0073333 L258.878945,59.0108704 C258.878945,57.5567222 258.453371,56.8383333 257.324297,56.8383333 C256.00663,56.8383333 255.442093,57.5740926 255.442093,59.3706852 L255.442093,64.0073333 L253.012723,64.0073333 L253.012723,55.1620926 L255.321741,55.1620926 L255.321741,56.3941481 L255.375093,56.3941481 C255.9905,55.4015556 257.051334,54.9238704 258.076185,54.9238704 Z M176.188537,51.7922407 C176.616593,51.7922407 177.062019,51.8443519 177.470223,51.8617222 L177.470223,53.6756852 C177.182371,53.6409444 176.890797,53.6223333 176.580611,53.6223333 C175.932945,53.6223333 175.658741,53.896537 175.658741,54.6322963 L175.658741,55.1620926 L177.334982,55.1620926 L177.334982,56.7862222 L175.658741,56.7862222 L175.658741,64.0073333 L173.230611,64.0073333 L173.230611,56.7862222 L171.775223,56.7862222 L171.775223,55.1620926 L173.230611,55.1620926 L173.230611,54.4784444 C173.230611,52.9213148 174.204593,51.7922407 176.188537,51.7922407 Z M137.962556,51.7922407 L143.06076,59.9873333 L143.09426,59.9873333 L143.09426,51.7922407 L145.609241,51.7922407 L145.609241,64.0073333 L142.923037,64.0073333 L137.842204,55.8308519 L137.807463,55.8308519 L137.807463,64.0073333 L135.293723,64.0073333 L135.293723,51.7922407 L137.962556,51.7922407 Z M102.003408,51.7922407 L102.003408,56.3941481 L102.051797,56.3941481 C102.670926,55.4015556 103.730519,54.9238704 104.6375,54.9238704 C107.219482,54.9238704 107.870871,56.3780185 107.870871,58.5666852 L107.870871,64.0073333 L105.439019,64.0073333 L105.439019,59.0108704 C105.439019,57.5567222 105.014685,56.8383333 103.885611,56.8383333 C102.567945,56.8383333 102.003408,57.5740926 102.003408,59.3706852 L102.003408,64.0073333 L99.5727966,64.0073333 L99.5727966,51.7922407 L102.003408,51.7922407 Z M98.7352966,51.7922407 L98.7352966,54.0516296 L95.0738707,54.0516296 L95.0738707,64.0073333 L92.3889077,64.0073333 L92.3889077,54.0516296 L88.7274818,54.0516296 L88.7274818,51.7922407 L98.7352966,51.7922407 Z M237.549371,56.753963 C236.180834,56.753963 235.581556,57.9525185 235.581556,59.2689444 C235.581556,60.5345 236.061723,61.9191667 237.549371,61.9191667 C238.934037,61.9191667 239.621408,60.7392222 239.621408,59.4724259 C239.621408,58.0356481 239.123871,56.753963 237.549371,56.753963 Z M191.976963,56.753963 C190.608426,56.753963 190.01163,57.9525185 190.01163,59.2689444 C190.01163,60.5345 190.489315,61.9191667 191.976963,61.9191667 C193.364111,61.9191667 194.046519,60.7392222 194.046519,59.4724259 C194.046519,58.0356481 193.551463,56.753963 191.976963,56.753963 Z M227.04526,54.8035185 L227.01176,54.8035185 L225.42113,59.2863148 L228.585019,59.2863148 L227.04526,54.8035185 Z M113.359908,56.753963 C111.821389,56.753963 111.374723,57.9525185 111.342463,58.6349259 L115.292982,58.6349259 C115.070889,57.4028704 114.539852,56.753963 113.359908,56.753963 Z M211.531037,56.753963 C209.990037,56.753963 209.547093,57.9525185 209.512352,58.6349259 L209.512352,58.6349259 L213.462871,58.6349259 C213.24326,57.4028704 212.710982,56.753963 211.531037,56.753963 Z M202.019519,56.753963 C200.47976,56.753963 200.034334,57.9525185 200.002074,58.6349259 L200.002074,58.6349259 L203.952593,58.6349259 C203.7305,57.4028704 203.200704,56.753963 202.019519,56.753963 Z M247.590685,56.753963 C246.052167,56.753963 245.60426,57.9525185 245.572,58.6349259 L245.572,58.6349259 L249.52376,58.6349259 C249.302908,57.4028704 248.77063,56.753963 247.590685,56.753963 Z M167.267611,56.753963 C165.726611,56.753963 165.283667,57.9525185 165.248926,58.6349259 L165.248926,58.6349259 L169.201926,58.6349259 C168.978593,57.4028704 168.447556,56.753963 167.267611,56.753963 Z M157.088574,53.8804074 L154.146778,53.8804074 L154.146778,57.3185 L157.088574,57.3185 C158.284648,57.3185 158.936037,56.8060741 158.936037,55.5740185 C158.936037,54.3953148 158.284648,53.8804074 157.088574,53.8804074 L157.088574,53.8804074 Z M21.8354262,50.5688704 C22.0814689,50.920188 22.2538646,51.223307 22.4111067,51.523675 L22.527111,51.7491453 C22.9679092,52.6169152 23.4043241,53.5558597 25.2263707,55.6459815 C24.5911114,55.9363148 20.8713707,56.9053333 18.3960929,57.0045926 C16.7583151,57.0045926 10.949167,55.4549074 9.01609291,51.4870185 C12.3524448,53.2761667 12.4033151,52.8419074 16.8513707,53.8096852 C20.0475188,54.5355185 22.3205559,55.5504444 23.1927966,55.4549074 C22.9992411,55.0206481 20.5351299,54.002 18.8390374,51.8741296 C17.141704,49.5998519 17.5300559,47.0352407 16.0262781,45.1455926 C17.046167,44.8552593 21.0128151,49.5043148 21.8354262,50.5688704 Z M61.4222497,45.1327781 L61.5118336,45.1455926 C59.9658707,47.0352407 60.3517411,49.5998519 58.6618522,51.8741296 C57.0091855,54.002 54.4966855,55.0206481 54.3068522,55.4549074 C55.2225188,55.5504444 57.447167,54.5355185 60.6433151,53.8096852 C65.0913707,52.8419074 65.1459633,53.2761667 68.4773522,51.4870185 C66.5467596,55.4549074 60.7388522,57.0045926 59.1432596,57.0045926 C56.6257966,56.9053333 52.9457596,55.9363148 52.2707966,55.6459815 C54.9272225,52.6471111 54.6865188,52.0180556 55.6567781,50.5688704 C56.4843522,49.5043148 60.4522411,44.8552593 61.5118336,45.1455926 Z M65.7241485,38.7619815 C66.0603892,46.0178333 63.1099077,48.536537 63.2054448,49.6991111 C64.4660374,49.986963 65.917704,47.9062407 67.6634262,46.5004815 C68.222299,46.0156216 68.6780824,45.7229193 69.150925,45.428843 L69.3549665,45.3021619 C70.3838992,44.6626935 71.5699794,43.889963 74.0954262,41.0796852 C74.2902225,43.9879815 71.0456855,48.0489259 69.2540559,49.0179444 C65.3382781,51.4870185 64.515667,50.5688704 61.2736114,51.7785926 C61.6110929,49.8901852 61.7550188,47.3230926 62.1930003,45.1455926 C62.7699448,42.8713148 64.9002966,39.5808704 65.7241485,38.7619815 Z M11.8189262,38.7619815 C12.5931485,39.5808704 14.7210188,42.8713148 15.3004448,45.1455926 C15.739667,47.3230926 15.9295003,49.8901852 16.2719448,51.7785926 C12.9839818,50.5688704 12.155167,51.4870185 8.24062994,49.0179444 C6.44651883,48.0489259 3.25409291,43.9879815 3.45385217,41.0796852 C5.97606231,43.889963 7.14096307,44.6626935 8.17000898,45.3021619 L8.37436868,45.428843 C8.84867031,45.7229193 9.31111948,46.0156216 9.88585217,46.5004815 C11.6266114,47.9062407 13.0274077,49.986963 14.2917225,49.6991111 C14.3835374,48.536537 11.4342966,46.0178333 11.8189262,38.7619815 Z M99.9661114,9.22118519 L99.9668298,29.6551029 C99.980239,33.2660735 100.243953,37.4554815 105.430334,37.4554815 C110.374472,37.4554815 110.715447,33.4244874 110.738962,29.8624879 L110.740486,29.4688688 L110.740486,29.4688688 L110.740704,9.22118519 L121.971889,9.22118519 L121.971889,31.5818148 C121.971889,41.6913704 116.511389,46.5426667 105.381945,46.5426667 C94.2475374,46.5426667 88.7336855,41.6913704 88.7336855,31.5818148 L88.7336855,9.22118519 L99.9661114,9.22118519 Z M224.593556,8.35266667 C234.598889,8.40105556 240.116463,13.6617963 241.083,22.8010926 L230.159519,22.8010926 C229.954797,21.4722593 228.933667,17.4410926 224.284611,17.4410926 C219.026352,17.4410926 217.343908,22.5430185 217.343908,27.4451852 C217.343908,32.3448704 219.026352,37.4542407 224.284611,37.4542407 C228.066389,37.4542407 229.546593,34.7978148 230.21163,31.3783333 L241.238093,31.3783333 C241.238093,38.7284815 235.263926,46.5414259 224.593556,46.5414259 C212.800315,46.5414259 206.110241,38.218537 206.110241,27.4451852 C206.110241,15.9571667 213.362371,8.35266667 224.593556,8.35266667 Z M267.327148,9.22118519 C273.705797,9.22118519 279.224611,12.7411667 279.224611,19.635963 C279.224611,23.4140185 277.487574,27.3943148 273.759148,28.7740185 C276.825019,29.949 278.712185,33.3188519 279.120389,37.8636852 C279.276723,39.6503519 279.323871,43.9879815 280.348723,45.6716667 L280.348723,45.6716667 L269.115056,45.6716667 C268.550519,43.8366111 268.345797,41.9482037 268.195667,40.0597963 C268.18975,39.993011 268.183833,39.9261693 268.177888,39.8592981 L268.141641,39.4579306 L268.141641,39.4579306 L268.103299,39.0571432 C267.791056,35.9232814 267.155998,32.9615185 263.144611,32.9615185 L263.144611,32.9615185 L257.165482,32.9615185 L257.165482,45.6716667 L245.933056,45.6716667 L245.933056,9.22118519 Z M179.665093,9.22118519 L179.665093,21.8817037 L190.184093,21.8817037 L190.184093,9.22118519 L201.415278,9.22118519 L201.415278,45.6716667 L190.184093,45.6716667 L190.184093,31.2244815 L179.665093,31.2244815 L179.665093,45.6716667 L168.432667,45.6716667 L168.432667,9.22118519 L179.665093,9.22118519 Z M140.19713,9.22118519 L150.817871,28.7219074 L150.918371,28.7219074 L150.918371,9.22118519 L161.537871,9.22118519 L161.537871,45.6716667 L150.613148,45.6716667 L139.432834,25.7627407 L139.329852,25.7627407 L139.329852,45.6716667 L128.711593,45.6716667 L128.711593,9.22118519 L140.19713,9.22118519 Z M37.6052411,1.3500312e-13 C38.6635929,0.725833333 38.0382596,2.41448148 37.8000374,3.09068519 C36.3024633,6.81042593 29.8282781,10.4792963 27.6545003,12.557537 C26.1569262,14.1506481 23.7920744,17.8703889 25.3367966,20.9585926 C28.4758707,22.1670741 28.235167,11.0115741 32.149704,11.2026481 C34.0827781,12.9917963 31.5702781,18.2562593 30.7935744,20.5702407 C29.8282781,23.4276667 29.0577781,29.4117593 27.2214818,32.3064074 C25.6804818,34.7246111 26.8356114,42.3080185 26.3504818,44.9160556 C25.0514262,46.2188333 21.5215188,45.2982037 20.0251855,45.0550185 C20.0251855,42.0635926 19.6343522,39.6987407 19.156667,34.9156852 C19.1334794,34.4415595 18.8759148,30.6261367 18.7178206,26.6579391 L18.6876269,25.8632073 C18.5490575,22.0212909 18.524235,18.235248 18.9147225,17.3852593 C20.6058522,13.6642778 29.8282781,6.56848148 31.0901114,5.21359259 C32.1943707,4.00759259 36.1064262,1.3500312e-13 37.6052411,1.3500312e-13 Z M40.2070744,1.3500312e-13 C41.7058892,1.3500312e-13 45.5745188,4.00759259 46.7308892,5.21359259 C47.9865188,6.56848148 57.2101855,13.6642778 58.8988336,17.3852593 C59.2887313,18.235248 59.2638798,22.0212909 59.1202429,25.8632073 L59.07218,27.0541315 C58.907134,30.8767856 58.6539196,34.4573637 58.6085003,34.9156852 C58.1270929,39.6987407 57.7871299,42.0635926 57.7871299,45.0550185 C56.241167,45.2982037 52.7670929,46.2188333 51.4109633,44.9160556 C50.9754633,42.3080185 52.0921299,34.7246111 50.5895929,32.3064074 C48.7607411,29.4117593 47.9865188,23.4276667 47.0199818,20.5702407 C46.2457596,18.2562593 43.7382225,12.9917963 45.616704,11.2026481 C49.5337225,11.0115741 49.2892966,22.1670741 52.4755188,20.9585926 C53.9768151,17.8703889 51.6057596,14.1506481 50.1602966,12.557537 C47.9865188,10.4792963 41.5160559,6.81042593 40.0172411,3.09068519 C39.7765374,2.41448148 39.1028151,0.725833333 40.2070744,1.3500312e-13 Z M38.8199262,9.10703704 C40.3385929,9.10703704 41.1264633,9.72740741 41.4366485,10.7348889 C42.6600188,15.1717778 39.2963707,15.1717778 40.4701114,17.2202407 C41.2927225,18.7351852 44.2196299,18.0478148 44.2196299,22.1943704 L44.2196299,22.1943704 L44.2196299,37.4170185 C44.2196299,38.9158333 43.7593151,39.0721667 42.0756299,39.0721667 C41.5942225,39.0721667 41.6711485,39.3401667 41.6711485,40.1863519 L41.6711485,40.1863519 L41.6719305,44.420048 C41.6798222,45.1743939 41.7300147,45.5761296 40.9800559,45.5761296 L40.9800559,45.5761296 L36.6635188,45.5761296 C35.8657225,45.5761296 35.9674633,45.1257407 35.9674633,44.2832778 L35.9674633,44.2832778 L35.9674633,40.1863519 C35.9674633,39.3401667 36.040667,39.0721667 35.5679448,39.0721667 C33.8768151,39.0721667 33.4239448,38.9158333 33.4239448,37.4170185 L33.4239448,37.4170185 L33.4239448,22.1943704 C33.4239448,19.6498931 34.5242017,18.9256286 35.56591,18.3957514 L35.795966,18.2805399 C36.3663416,17.9972066 36.8921535,17.7366991 37.174704,17.2202407 C38.3484448,15.1717778 34.9810744,15.1717778 36.2007225,10.7348889 C36.5084262,9.72740741 37.2987781,9.10703704 38.8199262,9.10703704 Z M9.05951883,29.5197037 C10.1290374,30.6785556 10.5149077,35.3276111 10.5149077,36.778037 C10.5149077,39.7285185 9.97890772,41.0362593 9.73820402,43.2112778 C3.9786855,41.3265926 0.977333647,34.7457037 0.977333647,31.5036481 C2.72305587,35.4702963 5.2851855,35.4206667 8.63022254,41.0362593 C8.91807439,38.9046667 8.04459291,40.5015 7.95029661,36.4877037 C8.00458842,34.0631459 8.31717761,32.9856007 8.59962961,32.0096845 L8.68748678,31.7034261 C8.85985186,31.0918555 9.00808449,30.468532 9.05951883,29.5197037 Z M68.430204,29.5197037 C68.4798336,30.389463 68.6092843,30.9857078 68.7635037,31.550107 L68.849749,31.8562554 C69.1432152,32.8759063 69.4854728,33.9355376 69.5456299,36.4877037 C69.4463707,40.5015 68.5790929,38.9046667 68.870667,41.0362593 C72.254167,35.4206667 74.7703892,35.4702963 76.5645003,31.5036481 C76.5645003,34.7457037 73.5184818,41.3265926 67.8048707,43.2112778 C67.7307985,42.5587722 67.6271346,41.9843217 67.5183005,41.4201556 L67.4086476,40.8569077 C67.1895129,39.7272281 66.9822596,38.5483259 66.9822596,36.778037 C66.9822596,35.3276111 67.3718522,30.6785556 68.430204,29.5197037 Z M77.1910744,20.7613148 C78.6427411,24.5852778 74.8237411,32.2766296 71.4824262,34.2097037 C71.143704,33.2444074 71.3881299,32.2294815 70.0270374,30.1983889 C68.430204,27.4861296 67.9487966,25.3111111 68.6250003,22.6447593 C69.3074077,23.2750556 70.0791485,25.1138333 70.9489077,26.5171111 C71.5779633,28.1623333 72.254167,30.389463 72.0630929,32.2766296 C72.9800003,31.451537 72.7417781,30.3410741 74.2902225,26.7119074 C75.1115929,24.2912222 76.3684633,23.6621667 77.1910744,20.7613148 Z M0.299889203,20.7613148 C0.737250314,22.2117407 1.25774105,23.0942176 1.77792161,23.9166736 L2.06112418,24.3623864 C2.48437734,25.0311856 2.89726715,25.7216271 3.25409291,26.7119074 C4.7553892,30.3410741 4.51716698,31.451537 5.4799818,32.2766296 C5.2851855,30.389463 5.91424105,28.1623333 6.54950031,26.5171111 C7.4688892,25.1138333 8.18727809,23.2750556 8.87092624,22.6447593 C9.59427809,25.3111111 9.06075957,27.4861296 7.51603735,30.1983889 C6.10903735,32.2294815 6.3509818,33.2444074 6.01350031,34.2097037 C2.66970402,32.2766296 -1.09966635,24.5852778 0.299889203,20.7613148 Z M5.14125957,11.0351481 C4.70700031,15.1928704 5.82366698,15.5799815 5.38320402,19.0155926 C5.38320402,19.2079074 4.89683365,22.7911667 4.89683365,22.9834815 C5.47874105,22.8879444 4.94894476,19.6905556 11.5745003,15.0960926 C11.0324517,16.0396759 10.7880645,16.7382905 10.556458,17.4191736 L10.4404009,17.7591896 C10.0875113,18.7811168 9.65654777,19.8483623 8.18603735,21.7278519 C5.78908463,24.0896414 5.00996797,26.4183669 4.85897181,26.974308 L4.852,26.998 L4.64417765,26.6152753 C2.95132647,23.4233663 2.76576598,21.0359957 2.62379661,18.2872778 C2.72429661,16.3070556 3.69207439,11.7113519 5.14125957,11.0351481 Z M72.4018151,11.0351481 C73.8026114,11.7113519 74.7703892,16.3070556 74.8721299,18.2872778 C74.7195188,21.1459444 74.5805559,23.6137778 72.6450003,27.0022407 L72.648,26.996 L72.6432848,26.974308 C72.504666,26.4333923 71.7836712,24.2142236 69.5001025,21.9192415 L69.306167,21.7278519 C66.6894448,18.386537 67.3706114,17.6123148 65.9648522,15.0960926 C72.5445003,19.6905556 72.0630929,22.8879444 72.5966114,22.9834815 C72.5966114,22.7911667 72.1586299,19.2079074 72.1586299,19.0155926 C71.6747411,15.5799815 72.7876855,15.1928704 72.4018151,11.0351481 Z M262.426223,17.8976852 L257.165482,17.8976852 L257.165482,25.1498148 L263.189744,25.1491665 C265.264478,25.1309765 267.992185,24.7110653 267.992185,21.5256111 C267.992185,19.2252778 266.716704,17.8976852 262.426223,17.8976852 L262.426223,17.8976852 Z M10.274204,5.27438889 C9.88585217,6.53374074 9.25183365,8.27325926 9.10914846,10.6467963 C8.29025957,13.8900926 7.80140772,13.9856296 7.99744476,14.4211296 C8.18727809,14.4211296 9.25183365,12.7262778 10.5608151,11.4210185 C12.1117411,9.87505556 14.0423336,9.53261111 15.3004448,8.6157037 C15.1118522,9.24227778 14.0001485,11.2249815 11.6737596,13.5997593 C10.274204,14.9000556 8.7753892,15.4360556 6.83487068,17.8095926 C6.01350031,14.9509259 6.20829661,12.4347037 6.5916855,10.7398519 C7.27285217,8.51768519 8.38331513,6.04612963 10.274204,5.27438889 Z M67.224204,5.27438889 C69.1126114,6.04612963 70.277667,8.51768519 70.9067225,10.7398519 C71.2863892,12.4347037 71.4824262,14.9509259 70.6560929,17.8095926 C68.7267411,15.4360556 67.224204,14.9000556 65.8693151,13.5997593 C63.5478892,11.2249815 62.3877966,9.24227778 62.1930003,8.6157037 C63.4945374,9.53261111 65.4362966,9.87505556 66.9313892,11.4210185 C68.2416114,12.7262778 69.3074077,14.4211296 69.4997225,14.4211296 C69.6932781,13.9856296 69.2081485,13.8900926 68.3867781,10.6467963 C68.2416114,8.27325926 67.6634262,6.53374074 67.224204,5.27438889 Z M16.5076855,3.53362963 C16.9940559,4.64533333 15.2545374,6.34142593 14.2396114,7.54866667 C13.4182411,8.32537037 11.5745003,8.85516667 10.3188707,10.5425741 C9.83622254,9.62814815 11.0918522,7.40474074 12.5931485,6.09824074 C13.7036114,5.17388889 15.8848336,3.67631481 16.5076855,3.53362963 Z M60.9783151,3.53362963 C61.6594818,3.67631481 63.8431855,5.17388889 64.9002966,6.09824074 C66.4053151,7.40474074 67.7056114,9.62814815 67.1745744,10.5425741 C65.9648522,8.85516667 64.0776855,8.32537037 63.3022225,7.54866667 C62.237667,6.34142593 60.4969077,4.64533333 60.9783151,3.53362963 Z" id="Combined-Shape"></path>
                </g>
            </g>
        </g>
    </g>
</svg>